<?xml version="1.0" encoding="UTF-8"?>
<!DOCTYPE svg PUBLIC "-//W3C//DTD SVG 1.1//EN" "http://www.w3.org/Graphics/SVG/1.1/DTD/svg11.dtd">
<!-- Creator: CorelDRAW X5 -->
<svg xmlns="http://www.w3.org/2000/svg" xml:space="preserve" width="206.477mm" height="206.999mm" style="shape-rendering:geometricPrecision; text-rendering:geometricPrecision; image-rendering:optimizeQuality; fill-rule:evenodd; clip-rule:evenodd" viewBox="0 0 31.8497 31.9302" xmlns:xlink="http://www.w3.org/1999/xlink">
 <defs>
  <style type="text/css">
   <![CDATA[
    .str0 {stroke:black;stroke-width:0.0117541}
    .str1 {stroke:#CCCCCC;stroke-width:0.0117541}
    .fil67 {fill:none}
    .fil94 {fill:#333333}
    .fil25 {fill:#5178B8}
    .fil69 {fill:#525252}
    .fil26 {fill:#5379B9}
    .fil27 {fill:#547BBB}
    .fil28 {fill:#567CBC}
    .fil29 {fill:#577EBD}
    .fil79 {fill:#592C0A}
    .fil30 {fill:#597FBE}
    .fil31 {fill:#5A81C0}
    .fil32 {fill:#5C82C1}
    .fil33 {fill:#5D84C2}
    .fil109 {fill:#5E2A2A}
    .fil34 {fill:#5F85C4}
    .fil35 {fill:#6187C5}
    .fil36 {fill:#6288C6}
    .fil37 {fill:#648AC8}
    .fil38 {fill:#658BC9}
    .fil2 {fill:#666666}
    .fil39 {fill:#678CCA}
    .fil40 {fill:#688ECB}
    .fil41 {fill:#6A8FCD}
    .fil100 {fill:#6B5849}
    .fil42 {fill:#6C91CE}
    .fil43 {fill:#6D92CF}
    .fil44 {fill:#6F94D1}
    .fil45 {fill:#7095D2}
    .fil3 {fill:#71A2C7}
    .fil46 {fill:#7297D3}
    .fil47 {fill:#7398D4}
    .fil92 {fill:#752A2A}
    .fil48 {fill:#759AD6}
    .fil49 {fill:#769BD7}
    .fil50 {fill:#789DD8}
    .fil51 {fill:#7A9EDA}
    .fil52 {fill:#7BA0DB}
    .fil53 {fill:#7DA1DC}
    .fil54 {fill:#7EA2DD}
    .fil89 {fill:gray}
    .fil55 {fill:#80A4DF}
    .fil56 {fill:#81A5E0}
    .fil57 {fill:#83A7E1}
    .fil58 {fill:#85A8E3}
    .fil59 {fill:#86AAE4}
    .fil77 {fill:#874818}
    .fil60 {fill:#88ABE5}
    .fil61 {fill:#89ADE7}
    .fil62 {fill:#8BAEE8}
    .fil63 {fill:#8CB0E9}
    .fil64 {fill:#8EB1EA}
    .fil65 {fill:#8FB3EC}
    .fil91 {fill:#913737}
    .fil66 {fill:#91B4ED}
    .fil78 {fill:#96653F}
    .fil104 {fill:#999999}
    .fil110 {fill:#A16D45}
    .fil101 {fill:#AB6F4A}
    .fil0 {fill:#B3B3B3}
    .fil93 {fill:#BD6A6A}
    .fil105 {fill:#BFBFBF}
    .fil87 {fill:#CCCCCC}
    .fil99 {fill:#D6A580}
    .fil76 {fill:#E6BB9A}
    .fil85 {fill:#E6E6E6}
    .fil86 {fill:#F2F2F2}
    .fil83 {fill:white}
    .fil97 {fill:#999999;fill-rule:nonzero}
    .fil88 {fill:url(#id0)}
    .fil71 {fill:url(#id1)}
    .fil73 {fill:url(#id2)}
    .fil1 {fill:url(#id3)}
    .fil96 {fill:url(#id4)}
    .fil74 {fill:url(#id5)}
    .fil4 {fill:url(#id6)}
    .fil5 {fill:url(#id7)}
    .fil6 {fill:url(#id8)}
    .fil7 {fill:url(#id9)}
    .fil8 {fill:url(#id10)}
    .fil9 {fill:url(#id11)}
    .fil10 {fill:url(#id12)}
    .fil11 {fill:url(#id13)}
    .fil12 {fill:url(#id14)}
    .fil13 {fill:url(#id15)}
    .fil14 {fill:url(#id16)}
    .fil15 {fill:url(#id17)}
    .fil16 {fill:url(#id18)}
    .fil17 {fill:url(#id19)}
    .fil18 {fill:url(#id20)}
    .fil19 {fill:url(#id21)}
    .fil20 {fill:url(#id22)}
    .fil21 {fill:url(#id23)}
    .fil22 {fill:url(#id24)}
    .fil23 {fill:url(#id25)}
    .fil24 {fill:url(#id26)}
    .fil81 {fill:url(#id27)}
    .fil70 {fill:url(#id28)}
    .fil84 {fill:url(#id29)}
    .fil75 {fill:url(#id30)}
    .fil80 {fill:url(#id31)}
    .fil98 {fill:url(#id32)}
    .fil95 {fill:url(#id33)}
    .fil82 {fill:url(#id34)}
    .fil90 {fill:url(#id35)}
    .fil106 {fill:url(#id36)}
    .fil108 {fill:url(#id37)}
    .fil103 {fill:url(#id38)}
    .fil102 {fill:url(#id39)}
    .fil107 {fill:url(#id40)}
    .fil68 {fill:url(#id41)}
    .fil72 {fill:url(#id42);fill-rule:nonzero}
   ]]>
  </style>
  <linearGradient id="id0" gradientUnits="userSpaceOnUse" x1="0.111401" y1="28.7113" x2="8.34062" y2="28.7113">
   <stop offset="0" style="stop-color:#999999"/>
   <stop offset="1" style="stop-color:#CCCCCC"/>
  </linearGradient>
  <linearGradient id="id1" gradientUnits="userSpaceOnUse" x1="27.3852" y1="19.6326" x2="17.0886" y2="18.5135">
   <stop offset="0" style="stop-color:#4A4A4A"/>
   <stop offset="1" style="stop-color:#737373"/>
  </linearGradient>
  <linearGradient id="id2" gradientUnits="userSpaceOnUse" x1="27.759" y1="26.629" x2="16.0804" y2="26.629">
   <stop offset="0" style="stop-color:#240F07"/>
   <stop offset="1" style="stop-color:#DE9964"/>
  </linearGradient>
  <linearGradient id="id3" gradientUnits="userSpaceOnUse" x1="22.1266" y1="22.573" x2="20.6899" y2="22.573">
   <stop offset="0" style="stop-color:#666666"/>
   <stop offset="1" style="stop-color:#CCCCCC"/>
  </linearGradient>
  <linearGradient id="id4" gradientUnits="userSpaceOnUse" x1="2.2768" y1="22.9617" x2="7.44945" y2="26.3562">
   <stop offset="0" style="stop-color:#999999"/>
   <stop offset="1" style="stop-color:#E6E6E6"/>
  </linearGradient>
  <linearGradient id="id5" gradientUnits="userSpaceOnUse" x1="17.0195" y1="25.812" x2="26.8199" y2="25.812">
   <stop offset="0" style="stop-color:#F5D1B6"/>
   <stop offset="1" style="stop-color:#A1561D"/>
  </linearGradient>
  <linearGradient id="id6" gradientUnits="userSpaceOnUse" x1="12.6811" y1="19.8584" x2="30.0559" y2="0.39862">
   <stop offset="0" style="stop-color:#1A4180"/>
   <stop offset="1" style="stop-color:#577EBE"/>
  </linearGradient>
  <linearGradient id="id7" gradientUnits="userSpaceOnUse" x1="12.7343" y1="19.7989" x2="30.0027" y2="0.458192">
   <stop offset="0" style="stop-color:#1D4483"/>
   <stop offset="1" style="stop-color:#577EBE"/>
  </linearGradient>
  <linearGradient id="id8" gradientUnits="userSpaceOnUse" x1="12.7874" y1="19.7393" x2="29.9495" y2="0.517765">
   <stop offset="0" style="stop-color:#1F4685"/>
   <stop offset="1" style="stop-color:#567DBD"/>
  </linearGradient>
  <linearGradient id="id9" gradientUnits="userSpaceOnUse" x1="12.8406" y1="19.6797" x2="29.8963" y2="0.577337">
   <stop offset="0" style="stop-color:#224988"/>
   <stop offset="1" style="stop-color:#567DBD"/>
  </linearGradient>
  <linearGradient id="id10" gradientUnits="userSpaceOnUse" x1="12.8938" y1="19.6202" x2="29.8432" y2="0.63691">
   <stop offset="0" style="stop-color:#244B8B"/>
   <stop offset="1" style="stop-color:#567DBD"/>
  </linearGradient>
  <linearGradient id="id11" gradientUnits="userSpaceOnUse" x1="12.947" y1="19.5606" x2="29.79" y2="0.696467">
   <stop offset="0" style="stop-color:#274E8D"/>
   <stop offset="1" style="stop-color:#567DBD"/>
  </linearGradient>
  <linearGradient id="id12" gradientUnits="userSpaceOnUse" x1="13.0002" y1="19.501" x2="29.7368" y2="0.756055">
   <stop offset="0" style="stop-color:#2A5190"/>
   <stop offset="1" style="stop-color:#557CBC"/>
  </linearGradient>
  <linearGradient id="id13" gradientUnits="userSpaceOnUse" x1="13.0534" y1="19.4414" x2="29.6836" y2="0.815627">
   <stop offset="0" style="stop-color:#2C5393"/>
   <stop offset="1" style="stop-color:#557CBC"/>
  </linearGradient>
  <linearGradient id="id14" gradientUnits="userSpaceOnUse" x1="13.1066" y1="19.3819" x2="29.6304" y2="0.875199">
   <stop offset="0" style="stop-color:#2F5695"/>
   <stop offset="1" style="stop-color:#557CBC"/>
  </linearGradient>
  <linearGradient id="id15" gradientUnits="userSpaceOnUse" x1="13.1598" y1="19.3223" x2="29.5772" y2="0.934772">
   <stop offset="0" style="stop-color:#325998"/>
   <stop offset="1" style="stop-color:#547BBB"/>
  </linearGradient>
  <linearGradient id="id16" gradientUnits="userSpaceOnUse" x1="13.213" y1="19.2627" x2="29.524" y2="0.994329">
   <stop offset="0" style="stop-color:#345B9B"/>
   <stop offset="1" style="stop-color:#547BBB"/>
  </linearGradient>
  <linearGradient id="id17" gradientUnits="userSpaceOnUse" x1="13.2661" y1="19.2032" x2="29.4709" y2="1.0539">
   <stop offset="0" style="stop-color:#375E9D"/>
   <stop offset="1" style="stop-color:#547BBB"/>
  </linearGradient>
  <linearGradient id="id18" gradientUnits="userSpaceOnUse" x1="13.3193" y1="19.1436" x2="29.4177" y2="1.11347">
   <stop offset="0" style="stop-color:#3960A0"/>
   <stop offset="1" style="stop-color:#547BBB"/>
  </linearGradient>
  <linearGradient id="id19" gradientUnits="userSpaceOnUse" x1="13.3725" y1="19.084" x2="29.3645" y2="1.17305">
   <stop offset="0" style="stop-color:#3C63A3"/>
   <stop offset="1" style="stop-color:#537ABA"/>
  </linearGradient>
  <linearGradient id="id20" gradientUnits="userSpaceOnUse" x1="13.4257" y1="19.0245" x2="29.3113" y2="1.2326">
   <stop offset="0" style="stop-color:#3F66A5"/>
   <stop offset="1" style="stop-color:#537ABA"/>
  </linearGradient>
  <linearGradient id="id21" gradientUnits="userSpaceOnUse" x1="13.4789" y1="18.9649" x2="29.2581" y2="1.29218">
   <stop offset="0" style="stop-color:#4168A8"/>
   <stop offset="1" style="stop-color:#537ABA"/>
  </linearGradient>
  <linearGradient id="id22" gradientUnits="userSpaceOnUse" x1="13.5321" y1="18.9053" x2="29.2049" y2="1.35176">
   <stop offset="0" style="stop-color:#446BAB"/>
   <stop offset="1" style="stop-color:#5279B9"/>
  </linearGradient>
  <linearGradient id="id23" gradientUnits="userSpaceOnUse" x1="13.5853" y1="18.8457" x2="29.1517" y2="1.41132">
   <stop offset="0" style="stop-color:#476EAD"/>
   <stop offset="1" style="stop-color:#5279B9"/>
  </linearGradient>
  <linearGradient id="id24" gradientUnits="userSpaceOnUse" x1="13.6385" y1="18.7862" x2="29.0985" y2="1.47089">
   <stop offset="0" style="stop-color:#4970B0"/>
   <stop offset="1" style="stop-color:#5279B9"/>
  </linearGradient>
  <linearGradient id="id25" gradientUnits="userSpaceOnUse" x1="13.6917" y1="18.7266" x2="29.0453" y2="1.53048">
   <stop offset="0" style="stop-color:#4C73B3"/>
   <stop offset="1" style="stop-color:#5279B9"/>
  </linearGradient>
  <linearGradient id="id26" gradientUnits="userSpaceOnUse" x1="13.7448" y1="18.667" x2="28.9922" y2="1.59004">
   <stop offset="0" style="stop-color:#4E75B5"/>
   <stop offset="1" style="stop-color:#5178B8"/>
  </linearGradient>
  <linearGradient id="id27" gradientUnits="userSpaceOnUse" x1="27.5292" y1="26.8077" x2="25.885" y2="27.0817">
   <stop offset="0" style="stop-color:#874E23"/>
   <stop offset="1" style="stop-color:#573520"/>
  </linearGradient>
  <linearGradient id="id28" gradientUnits="userSpaceOnUse" x1="26.0513" y1="-0.670614" x2="22.972" y2="21.3242">
   <stop offset="0" style="stop-color:#CCCCCC"/>
   <stop offset="1" style="stop-color:#6B6B6B"/>
  </linearGradient>
  <linearGradient id="id29" gradientUnits="userSpaceOnUse" x1="26.2244" y1="2.40367" x2="24.2764" y2="0.744254">
   <stop offset="0" style="stop-color:gray"/>
   <stop offset="1" style="stop-color:#E6E6E6"/>
  </linearGradient>
  <linearGradient id="id30" gradientUnits="userSpaceOnUse" x1="25.4416" y1="27.1366" x2="18.5213" y2="24.4411">
   <stop offset="0" style="stop-color:#612C19"/>
   <stop offset="1" style="stop-color:#E39852"/>
  </linearGradient>
  <linearGradient id="id31" gradientUnits="userSpaceOnUse" x1="16.7128" y1="26.7942" x2="19.5682" y2="27.4208">
   <stop offset="0" style="stop-color:#F5D1B6"/>
   <stop offset="1" style="stop-color:#A26C46"/>
  </linearGradient>
  <linearGradient id="id32" gradientUnits="userSpaceOnUse" x1="5.11069" y1="22.3422" x2="15.9312" y2="23.1297">
   <stop offset="0" style="stop-color:#B88660"/>
   <stop offset="1" style="stop-color:#E6BB9A"/>
  </linearGradient>
  <linearGradient id="id33" gradientUnits="userSpaceOnUse" x1="17.5018" y1="19.3423" x2="16.8258" y2="19.0211">
   <stop offset="0" style="stop-color:#666666"/>
   <stop offset="1" style="stop-color:#B3B3B3"/>
  </linearGradient>
  <linearGradient id="id34" gradientUnits="userSpaceOnUse" xlink:href="#id29" x1="25.8887" y1="0.965098" x2="25.314" y2="0.587024">
  </linearGradient>
  <linearGradient id="id35" gradientUnits="userSpaceOnUse" x1="11.8468" y1="25.7293" x2="7.68902" y2="25.536">
   <stop offset="0" style="stop-color:#941313"/>
   <stop offset="1" style="stop-color:#E85454"/>
  </linearGradient>
  <linearGradient id="id36" gradientUnits="userSpaceOnUse" x1="21.6917" y1="25.3918" x2="19.2538" y2="26.8437">
   <stop offset="0" style="stop-color:white"/>
   <stop offset="1" style="stop-color:#EDEDED"/>
  </linearGradient>
  <linearGradient id="id37" gradientUnits="userSpaceOnUse" x1="13.7673" y1="26.6517" x2="15.6836" y2="25.6065">
   <stop offset="0" style="stop-color:white"/>
   <stop offset="1" style="stop-color:#DBDBDB"/>
  </linearGradient>
  <linearGradient id="id38" gradientUnits="userSpaceOnUse" x1="15.0512" y1="26.961" x2="12.9309" y2="27.4275">
   <stop offset="0" style="stop-color:#CCCCCC"/>
   <stop offset="1" style="stop-color:#FEFEFE"/>
  </linearGradient>
  <linearGradient id="id39" gradientUnits="userSpaceOnUse" xlink:href="#id38" x1="14.6479" y1="27.4045" x2="12.4548" y2="27.8937">
  </linearGradient>
  <linearGradient id="id40" gradientUnits="userSpaceOnUse" x1="14.8204" y1="26.671" x2="13.5294" y2="26.9291">
   <stop offset="0" style="stop-color:#E6E6E6"/>
   <stop offset="1" style="stop-color:#FEFEFE"/>
  </linearGradient>
  <radialGradient id="id41" gradientUnits="userSpaceOnUse" cx="18.373" cy="14.8833" r="9.30744" fx="18.373" fy="14.8833">
   <stop offset="0" style="stop-color:#EBF5FF"/>
   <stop offset="1" style="stop-color:#91CDFA"/>
  </radialGradient>
  <linearGradient id="id42" gradientUnits="userSpaceOnUse" x1="29.3808" y1="2.5428" x2="21.1189" y2="19.0666">
   <stop offset="0" style="stop-color:#ADADAD"/>
   <stop offset="1" style="stop-color:#666666"/>
  </linearGradient>
 </defs>
 <g id="Layer_x0020_1">
  <metadata id="CorelCorpID_0Corel-Layer"/>
  <path class="fil0" d="M19.3018 31.5719l-8.19519 0.326491 -1.40398 -0.555048 -0.0326399 -0.293852 -0.261212 -0.0979351 0.473448 -0.538743 -0.0979505 -0.326507 -0.114286 -0.212221 -0.0163199 -0.146926 -0.146926 -0.310171c0,0 -0.0979505,-0.408137 -0.0979505,-0.506088 0,-0.0979505 -0.11427,-0.881555 -0.11427,-0.881555 0,0 1.73047,-0.195886 1.94269,-0.0816151 0.212221,0.11427 2.98749,1.82842 3.33032,1.81208 0.342827,-0.0163354 4.89753,1.09378 4.89753,1.09378l-0.163261 0.718309z"/>
  <polygon class="fil1" points="21.0695,20.1875 21.7225,20.2283 22.1266,21.1404 22.1266,24.9585 20.6899,24.9585 20.6899,20.7507 "/>
  <path class="fil2" d="M20.9267 20.1018l0.897875 -0.0489753 0.302042 0.685654 -1.54253e-005 0.253021 0 0.742835c-0.395088,-0.739673 -0.673329,-1.25861 -1.43662,-0.917665l0.00206699 -0.09249 0.234649 -0.622379z"/>
  <circle class="fil3" transform="matrix(0.894851 0.501804 -0.501804 0.894851 21.3685 10.1285)" r="9.07674"/>
  <path class="fil4" d="M25.8523 2.1327c4.41599,2.47634 5.98839,8.06367 3.51203,12.4797 -2.47634,4.41599 -8.06367,5.98839 -12.4797,3.51203 -4.41599,-2.47634 -5.98839,-8.06367 -3.51204,-12.4797 2.47634,-4.41598 8.06367,-5.98837 12.4797,-3.51203z"/>
  <g id="_366143960">
   <path id="_406759792" class="fil5" d="M25.8249 2.18164c4.38897,2.46118 5.95172,8.0143 3.49052,12.4032 -2.46118,4.38897 -8.0143,5.95172 -12.4032,3.49052 -4.38897,-2.46118 -5.95172,-8.0143 -3.49054,-12.4032 2.46118,-4.38895 8.0143,-5.9517 12.4032,-3.49052z"/>
   <path id="_406755400" class="fil6" d="M25.7974 2.23059c4.36191,2.44603 5.91505,7.96493 3.46902,12.3269 -2.44602,4.36191 -7.96493,5.91505 -12.3268,3.46902 -4.36191,-2.44603 -5.91505,-7.96493 -3.46904,-12.3269 2.44603,-4.3619 7.96493,-5.91504 12.3269,-3.46902z"/>
   <path id="_402144328" class="fil7" d="M25.77 2.27955c4.33489,2.43085 5.87839,7.91556 3.44752,12.2504 -2.43085,4.33489 -7.91556,5.87839 -12.2504,3.44752 -4.33489,-2.43085 -5.87839,-7.91556 -3.44753,-12.2504 2.43085,-4.33487 7.91556,-5.87837 12.2504,-3.44752z"/>
   <path id="_402143920" class="fil8" d="M25.7425 2.32849c4.30785,2.41571 5.84174,7.8662 3.42603,12.174 -2.41571,4.30785 -7.8662,5.84174 -12.174,3.42603 -4.30785,-2.41571 -5.84174,-7.8662 -3.42603,-12.174 2.41569,-4.30783 7.86618,-5.84172 12.174,-3.42603z"/>
   <path id="_402146968" class="fil9" d="M25.7151 2.37745c4.28081,2.40054 5.80506,7.81682 3.40451,12.0976 -2.40054,4.28081 -7.81682,5.80506 -12.0976,3.40451 -4.28081,-2.40054 -5.80506,-7.81682 -3.40453,-12.0976 2.40054,-4.28081 7.81682,-5.80506 12.0976,-3.40453z"/>
   <path id="_402151672" class="fil10" d="M25.6876 2.42641c4.25377,2.38538 5.76841,7.76746 3.38301,12.0212 -2.38536,4.25377 -7.76744,5.76841 -12.0212,3.38301 -4.25377,-2.38538 -5.76841,-7.76744 -3.38303,-12.0212 2.38538,-4.25375 7.76746,-5.76839 12.0212,-3.38301z"/>
   <path id="_402150952" class="fil11" d="M25.6601 2.47536c4.22674,2.37022 5.73174,7.7181 3.36152,11.9448 -2.37022,4.22674 -7.71808,5.73174 -11.9448,3.36152 -4.22674,-2.37022 -5.73174,-7.71808 -3.36152,-11.9448 2.3702,-4.22673 7.71808,-5.73172 11.9448,-3.36152z"/>
   <path id="_402147640" class="fil12" d="M25.6327 2.52432c4.1997,2.35505 5.69507,7.66872 3.34,11.8684 -2.35505,4.1997 -7.66871,5.69507 -11.8684,3.34 -4.1997,-2.35505 -5.69507,-7.66871 -3.34002,-11.8684 2.35505,-4.1997 7.66872,-5.69507 11.8684,-3.34002z"/>
   <path id="_402151264" class="fil13" d="M25.6053 2.57328c4.17266,2.33989 5.65841,7.61935 3.3185,11.792 -2.33988,4.17266 -7.61933,5.65841 -11.792,3.3185 -4.17266,-2.33989 -5.65841,-7.61933 -3.31852,-11.792 2.33989,-4.17265 7.61935,-5.65839 11.792,-3.3185z"/>
   <path id="_402150976" class="fil14" d="M25.5778 2.62222c4.14564,2.32474 5.62176,7.56999 3.29701,11.7156 -2.32473,4.14564 -7.56997,5.62176 -11.7156,3.29701 -4.14564,-2.32474 -5.62176,-7.56997 -3.29701,-11.7156 2.32473,-4.14562 7.56997,-5.62174 11.7156,-3.29701z"/>
   <path id="_402144592" class="fil15" d="M25.5504 2.67118c4.11858,2.30957 5.58508,7.52061 3.2755,11.6392 -2.30957,4.11858 -7.52061,5.58508 -11.6392,3.2755 -4.11858,-2.30957 -5.58508,-7.52061 -3.27551,-11.6392 2.30957,-4.11858 7.52061,-5.58508 11.6392,-3.27551z"/>
   <path id="_402147016" class="fil16" d="M25.5229 2.72012c4.09155,2.29442 5.54843,7.47125 3.25401,11.5628 -2.29442,4.09155 -7.47125,5.54843 -11.5628,3.25401 -4.09155,-2.29442 -5.54843,-7.47125 -3.25401,-11.5628 2.2944,-4.09155 7.47123,-5.54843 11.5628,-3.25402z"/>
   <path id="_402148456" class="fil17" d="M25.4954 2.76908c4.06451,2.27925 5.51176,7.42187 3.23251,11.4864 -2.27924,4.06451 -7.42187,5.51176 -11.4864,3.23251 -4.06451,-2.27925 -5.51176,-7.42187 -3.23251,-11.4864 2.27924,-4.0645 7.42186,-5.51174 11.4864,-3.23251z"/>
   <path id="_402145912" class="fil18" d="M25.468 2.81804c4.03747,2.26409 5.47509,7.3725 3.21099,11.41 -2.26408,4.03747 -7.3725,5.47509 -11.41,3.21099 -4.03747,-2.26409 -5.47509,-7.3725 -3.211,-11.41 2.26409,-4.03747 7.3725,-5.47509 11.41,-3.211z"/>
   <path id="_402144064" class="fil19" d="M25.4405 2.86699c4.01045,2.24893 5.43843,7.32313 3.1895,11.3336 -2.24893,4.01045 -7.32313,5.43843 -11.3336,3.1895 -4.01045,-2.24893 -5.43843,-7.32313 -3.1895,-11.3336 2.24891,-4.01045 7.32312,-5.43843 11.3336,-3.18952z"/>
   <path id="_402146728" class="fil20" d="M25.4131 2.91595c3.98341,2.23377 5.40178,7.27377 3.168,11.2572 -2.23375,3.98341 -7.27376,5.40178 -11.2572,3.168 -3.98341,-2.23377 -5.40178,-7.27376 -3.168,-11.2572 2.23375,-3.98339 7.27376,-5.40176 11.2572,-3.168z"/>
   <path id="_406759384" class="fil21" d="M25.3856 2.96491c3.95637,2.2186 5.3651,7.2244 3.14648,11.1808 -2.21859,3.95637 -7.22438,5.3651 -11.1807,3.14648 -3.95637,-2.2186 -5.3651,-7.22438 -3.14649,-11.1807 2.2186,-3.95637 7.2244,-5.3651 11.1808,-3.14649z"/>
   <path id="_406760512" class="fil22" d="M25.3582 3.01385c3.92933,2.20345 5.32845,7.17504 3.12499,11.1044 -2.20344,3.92933 -7.17502,5.32845 -11.1043,3.12499 -3.92933,-2.20345 -5.32845,-7.17502 -3.12499,-11.1043 2.20344,-3.92933 7.17502,-5.32845 11.1043,-3.12501z"/>
   <path id="_406755640" class="fil23" d="M25.3307 3.06281c3.9023,2.18828 5.29178,7.12566 3.10349,11.0279 -2.18828,3.9023 -7.12565,5.29178 -11.0279,3.10349 -3.9023,-2.18828 -5.29178,-7.12565 -3.10349,-11.0279 2.18826,-3.9023 7.12565,-5.29178 11.0279,-3.1035z"/>
   <path id="_406757344" class="fil24" d="M25.3033 3.11176c3.87525,2.17313 5.25511,7.0763 3.08199,10.9516 -2.17311,3.87525 -7.07628,5.25511 -10.9515,3.08199 -3.87525,-2.17313 -5.25511,-7.07628 -3.08199,-10.9515 2.17311,-3.87525 7.07628,-5.25511 10.9515,-3.082z"/>
  </g>
  <circle class="fil25" transform="matrix(0.767656 0.430477 -0.430477 0.767656 21.3685 10.1285)" r="9.07674"/>
  <g id="_366141992">
   <path id="_366138200" class="fil26" d="M25.1609 3.40374c3.79118,2.12169 5.16455,6.8966 3.06068,10.6758 -2.10385,3.77924 -6.93275,5.1128 -10.734,2.98112 -3.80265,-2.13245 -5.17601,-6.94071 -3.04427,-10.7153 2.13171,-3.77461 6.92641,-5.06329 10.7176,-2.9416z"/>
   <path id="_366144272" class="fil27" d="M25.046 3.64675c3.73414,2.08542 5.11066,6.76627 3.06088,10.4765 -2.04976,3.71024 -6.83858,5.00715 -10.5929,2.90176 -3.7571,-2.10697 -5.13358,-6.85455 -3.02807,-10.5555 2.10549,-3.70102 6.82592,-4.90812 10.5601,-2.82273z"/>
   <path id="_402149440" class="fil28" d="M24.931 3.88982c3.67711,2.04912 5.05676,6.63594 3.0611,10.2772 -1.99566,3.64126 -6.74442,4.90151 -10.4518,2.82239 -3.71154,-2.08146 -5.09113,-6.76835 -3.01186,-10.3958 2.07925,-3.62739 6.72542,-4.75296 10.4025,-2.70384z"/>
   <path id="_398795904" class="fil29" d="M24.8161 4.13283c3.62007,2.01286 5.00286,6.50561 3.0613,10.0779 -1.94155,3.57229 -6.65025,4.79586 -10.3106,2.74305 -3.66597,-2.05597 -5.04869,-6.68217 -2.99567,-10.236 2.05303,-3.5538 6.62493,-4.59781 10.245,-2.58497z"/>
   <path id="_366141944" class="fil30" d="M24.7012 4.37587c3.56302,1.97658 4.94897,6.37528 3.0615,9.87858 -1.88745,3.5033 -6.5561,4.69021 -10.1695,2.66367 -3.62042,-2.03046 -5.00626,-6.59599 -2.97945,-10.0762 2.02679,-3.48019 6.52443,-4.44263 10.0875,-2.46607z"/>
   <path id="_366144776" class="fil31" d="M24.5862 4.6189c3.50598,1.9403 4.89507,6.24494 3.0617,9.67925 -1.83336,3.43431 -6.46194,4.58456 -10.0284,2.58432 -3.57484,-2.00498 -4.96381,-6.50981 -2.96323,-9.91639 2.00055,-3.4066 6.42392,-4.28749 9.92991,-2.34719z"/>
   <path id="_366139880" class="fil32" d="M24.4713 4.86195c3.44895,1.90403 4.84119,6.11463 3.06192,9.47994 -1.77926,3.36533 -6.36777,4.47891 -9.88726,2.50496 -3.52929,-1.97946 -4.92136,-6.42361 -2.94703,-9.7566 1.97433,-3.33297 6.32344,-4.13232 9.77238,-2.2283z"/>
   <path id="_366138512" class="fil33" d="M24.3564 5.10498c3.39191,1.86775 4.78728,5.98428 3.06212,9.28063 -1.72516,3.29634 -6.27361,4.37327 -9.74614,2.42559 -3.48372,-1.95398 -4.87892,-6.33744 -2.93082,-9.59681 1.94809,-3.25938 6.22293,-3.97716 9.61484,-2.10942z"/>
   <path id="_366139640" class="fil34" d="M24.2414 5.34801c3.33487,1.83147 4.73339,5.85397 3.06232,9.08132 -1.67107,3.22735 -6.17944,4.26762 -9.60501,2.34623 -3.43816,-1.92847 -4.83649,-6.25125 -2.91462,-9.43701 1.92187,-3.18577 6.12245,-3.822 9.45731,-1.99054z"/>
   <path id="_366140096" class="fil35" d="M24.1265 5.59103c3.27783,1.79519 4.67949,5.72363 3.06252,8.882 -1.61697,3.15837 -6.08529,4.16197 -9.46389,2.26687 -3.3926,-1.90295 -4.79405,-6.16505 -2.89841,-9.27722 1.89563,-3.11216 6.02194,-3.66684 9.29978,-1.87164z"/>
   <path id="_366139328" class="fil36" d="M24.0115 5.83407c3.2208,1.75893 4.62561,5.59331 3.06274,8.6827 -1.56286,3.08939 -5.99113,4.05632 -9.32276,2.1875 -3.34704,-1.87747 -4.75162,-6.07887 -2.8822,-9.11743 1.86939,-3.03856 5.92144,-3.51169 9.14222,-1.75277z"/>
   <path id="_366141176" class="fil37" d="M23.8966 6.07711c3.16376,1.72265 4.57171,5.46297 3.06294,8.48338 -1.50876,3.02041 -5.89696,3.95068 -9.18163,2.10814 -3.30147,-1.85196 -4.70917,-5.99269 -2.866,-8.95764 1.84317,-2.96494 5.82094,-3.35651 8.9847,-1.63388z"/>
   <path id="_366139352" class="fil38" d="M23.7817 6.32015c3.10671,1.68637 4.5178,5.33264 3.06314,8.28405 -1.45467,2.95143 -5.8028,3.84503 -9.04051,2.02879 -3.25592,-1.82648 -4.66673,-5.90651 -2.84979,-8.79785 1.81693,-2.89134 5.72045,-3.20136 8.82716,-1.51499z"/>
   <path id="_366141392" class="fil39" d="M23.6667 6.56318c3.04967,1.6501 4.46391,5.20233 3.06334,8.08476 -1.40057,2.88243 -5.70865,3.73938 -8.89938,1.94942 -3.21035,-1.80096 -4.6243,-5.82031 -2.83358,-8.63806 1.79069,-2.81774 5.61994,-3.0462 8.66962,-1.39611z"/>
   <path id="_366140192" class="fil40" d="M23.5518 6.80622c2.99264,1.61381 4.41003,5.07199 3.06355,7.88543 -1.34647,2.81345 -5.61448,3.63373 -8.75826,1.87007 -3.16479,-1.77548 -4.58186,-5.73415 -2.81738,-8.47827 1.76447,-2.74414 5.51946,-2.89104 8.51208,-1.27723z"/>
   <path id="_366138032" class="fil41" d="M23.4368 7.04926c2.9356,1.57754 4.35613,4.94167 3.06375,7.68612 -1.29238,2.74447 -5.52032,3.52808 -8.61715,1.79071 -3.11922,-1.74997 -4.5394,-5.64795 -2.80115,-8.31848 1.73823,-2.67052 5.41895,-2.73587 8.35455,-1.15835z"/>
   <path id="_366141152" class="fil42" d="M23.3219 7.29228c2.87856,1.54126 4.30223,4.81133 3.06395,7.48681 -1.23828,2.67547 -5.42615,3.42244 -8.47602,1.71133 -3.07366,-1.72445 -4.49696,-5.56175 -2.78496,-8.15869 1.71201,-2.59691 5.31847,-2.58071 8.19702,-1.03945z"/>
   <path id="_366139424" class="fil43" d="M23.207 7.53533c2.82151,1.50498 4.24832,4.681 3.06415,7.28749 -1.18417,2.6065 -5.33199,3.31679 -8.33489,1.63198 -3.02811,-1.69897 -4.45453,-5.47559 -2.76874,-7.9989 1.68577,-2.52331 5.21795,-2.42555 8.03948,-0.920565z"/>
   <path id="_366143576" class="fil44" d="M23.092 7.77835c2.76449,1.46872 4.19444,4.55067 3.06437,7.08818 -1.13007,2.53752 -5.23784,3.21114 -8.19377,1.55262 -2.98254,-1.67346 -4.41209,-5.38939 -2.75253,-7.83911 1.65953,-2.4497 5.11746,-2.27038 7.88193,-0.801683z"/>
   <path id="_366143984" class="fil45" d="M22.9771 8.02139c2.70744,1.43244 4.14055,4.42034 3.06457,6.88887 -1.07597,2.46852 -5.14367,3.10549 -8.05264,1.47325 -2.93697,-1.64797 -4.36966,-5.30321 -2.73634,-7.67932 1.63331,-2.37611 5.01696,-2.11524 7.72441,-0.6828z"/>
   <path id="_366138464" class="fil46" d="M22.8622 8.26442c2.65039,1.39616 4.08665,4.29002 3.06477,6.68956 -1.02188,2.39954 -5.04951,2.99985 -7.91152,1.39389 -2.89142,-1.62246 -4.32721,-5.21703 -2.72012,-7.51953 1.60708,-2.30248 4.91647,-1.96006 7.56687,-0.563917z"/>
   <path id="_366144320" class="fil47" d="M22.7472 8.50746c2.59334,1.35988 4.03275,4.15969 3.06497,6.49025 -0.967782,2.33054 -4.95534,2.8942 -7.77039,1.31453 -2.84586,-1.59698 -4.28477,-5.13085 -2.70393,-7.35974 1.58086,-2.22889 4.81597,-1.80491 7.40935,-0.445035z"/>
   <path id="_370951024" class="fil48" d="M22.6323 8.75048c2.53632,1.32361 3.97887,4.02936 3.06519,6.29094 -0.913685,2.26156 -4.86118,2.78855 -7.62926,1.23516 -2.80029,-1.57147 -4.24234,-5.04465 -2.68772,-7.19995 1.55462,-2.15528 4.71548,-1.64975 7.25179,-0.326152z"/>
   <path id="_370950400" class="fil49" d="M22.5174 8.99352c2.47927,1.28733 3.92496,3.89903 3.06539,6.09161 -0.859574,2.1926 -4.76703,2.6829 -7.48814,1.15582 -2.75474,-1.54598 -4.1999,-4.95849 -2.6715,-7.04016 1.52838,-2.08169 4.61497,-1.49459 7.09425,-0.207269z"/>
   <path id="_370950256" class="fil50" d="M22.4024 9.23655c2.42223,1.25105 3.87107,3.76869 3.06559,5.8923 -0.805477,2.1236 -4.67286,2.57726 -7.34701,1.07644 -2.70917,-1.52047 -4.15747,-4.87229 -2.65531,-6.88037 1.50216,-2.00808 4.51449,-1.33942 6.93673,-0.0883714z"/>
   <path id="_370948312" class="fil51" d="M22.2875 9.47959c2.36519,1.21479 3.81717,3.63838 3.06579,5.69299 -0.751381,2.05462 -4.5787,2.47161 -7.2059,0.997074 -2.66361,-1.49496 -4.115,-4.78609 -2.63908,-6.72058 1.47592,-1.93445 4.41397,-1.18426 6.77919,0.0305112z"/>
   <path id="_370950736" class="fil52" d="M22.1725 9.72263c2.30816,1.17849 3.76329,3.50803 3.06601,5.49367 -0.697284,1.98563 -4.48453,2.36596 -7.06478,0.917727 -2.61804,-1.46947 -4.07257,-4.69993 -2.62288,-6.56079 1.4497,-1.86086 4.31349,-1.0291 6.62166,0.149394z"/>
   <path id="_370951840" class="fil53" d="M22.0576 9.96565c2.25112,1.14223 3.70939,3.37772 3.06621,5.29437 -0.643188,1.91664 -4.39037,2.26031 -6.92365,0.838348 -2.57247,-1.44396 -4.03013,-4.61373 -2.60667,-6.401 1.42346,-1.78725 4.21298,-0.873935 6.46412,0.268276z"/>
   <path id="_402147112" class="fil54" d="M21.9427 10.2087c2.19408,1.10595 3.65548,3.24739 3.06641,5.09505 -0.589091,1.84766 -4.29622,2.15466 -6.78253,0.759001 -2.52692,-1.41848 -3.9877,-4.52755 -2.59046,-6.24121 1.39722,-1.71366 4.11249,-0.718787 6.30658,0.387159z"/>
   <path id="_402145240" class="fil55" d="M21.8277 10.4517c2.13703,1.06967 3.60159,3.11705 3.06661,4.89572 -0.534995,1.77867 -4.20205,2.04902 -6.6414,0.679638 -2.48136,-1.39296 -3.94525,-4.44137 -2.57426,-6.08142 1.371,-1.64003 4.01199,-0.563609 6.14906,0.506057z"/>
   <path id="_402149776" class="fil56" d="M21.7128 10.6948c2.08001,1.0334 3.54771,2.98673 3.06682,4.69643 -0.480883,1.70969 -4.10789,1.94337 -6.50027,0.600275 -2.43579,-1.36748 -3.90281,-4.35519 -2.55805,-5.92163 1.34476,-1.56644 3.9115,-0.408461 5.9915,0.624924z"/>
   <path id="_402149320" class="fil57" d="M21.5978 10.9378c2.02296,0.997121 3.49381,2.85639 3.06702,4.4971 -0.426787,1.64071 -4.01373,1.83772 -6.35915,0.520912 -2.39024,-1.34197 -3.86038,-4.26899 -2.54184,-5.76183 1.31852,-1.49283 3.81098,-0.253298 5.83396,0.743822z"/>
   <path id="_402145696" class="fil58" d="M21.4829 11.1808c1.96592,0.960841 3.43991,2.72608 3.06722,4.29779 -0.37269,1.57173 -3.91956,1.73207 -6.21802,0.441549 -2.34467,-1.31645 -3.81794,-4.1828 -2.52564,-5.60204 1.2923,-1.41922 3.7105,-0.0981356 5.67644,0.862705z"/>
   <path id="_402148960" class="fil59" d="M21.368 11.4239c1.90888,0.92456 3.386,2.59573 3.06742,4.09848 -0.318594,1.50273 -3.82541,1.62643 -6.0769,0.362186 -2.29911,-1.29097 -3.77551,-4.09663 -2.50943,-5.44225 1.26606,-1.34562 3.60999,0.0570272 5.5189,0.981588z"/>
   <path id="_402147544" class="fil60" d="M21.253 11.6669c1.85185,0.888295 3.33212,2.46542 3.06764,3.89917 -0.264497,1.43375 -3.73124,1.52078 -5.93577,0.282822 -2.25356,-1.26546 -3.73306,-4.01043 -2.49323,-5.28246 1.23984,-1.272 3.50951,0.21219 5.36136,1.10047z"/>
   <path id="_402151696" class="fil61" d="M21.1381 11.9099c1.79481,0.852015 3.27823,2.33508 3.06784,3.69985 -0.210401,1.36477 -3.63708,1.41513 -5.79466,0.203475 -2.20797,-1.23998 -3.69061,-3.92425 -2.47701,-5.12267 1.2136,-1.19841 3.409,0.367338 5.20383,1.21935z"/>
   <path id="_402149248" class="fil62" d="M21.0232 12.153c1.73777,0.815735 3.22433,2.20475 3.06804,3.50054 -0.156304,1.29577 -3.54292,1.30948 -5.65353,0.124096 -2.16242,-1.21446 -3.64817,-3.83807 -2.46079,-4.96288 1.18736,-1.1248 3.30851,0.522516 5.04629,1.33825z"/>
   <path id="_402151384" class="fil63" d="M20.9082 12.396c1.68072,0.77947 3.17043,2.07442 3.06824,3.30123 -0.102192,1.2268 -3.44875,1.20383 -5.51241,0.0447487 -2.11686,-1.18898 -3.60574,-3.75189 -2.4446,-4.80309 1.16114,-1.0512 3.20801,0.677663 4.88876,1.45712z"/>
   <path id="_406754752" class="fil64" d="M20.7933 12.6391c1.6237,0.743174 3.11654,1.94409 3.06846,3.1019 -0.048096,1.15782 -3.3546,1.09819 -5.37128,-0.0346143 -2.07129,-1.16347 -3.56329,-3.66569 -2.42839,-4.6433 1.1349,-0.977577 3.10751,0.832826 4.73121,1.57602z"/>
   <path id="_406761112" class="fil65" d="M20.6784 12.8821c1.56665,0.70691 3.06264,1.81377 3.06866,2.90261 0.00600043,1.08882 -3.26043,0.992539 -5.23016,-0.113977 -2.02574,-1.13798 -3.52085,-3.57953 -2.41219,-4.48351 1.10868,-0.903983 3.00702,0.987989 4.57369,1.69488z"/>
  </g>
  <path class="fil66" d="M20.5634 13.1251c1.50961,0.670629 3.00875,1.68344 3.06886,2.70328 0.0600969,1.01984 -3.16627,0.886892 -5.08903,-0.19334 -1.98017,-1.11247 -3.47842,-3.49333 -2.39598,-4.32372 1.08244,-0.830374 2.90652,1.14315 4.41615,1.81378z"/>
  <path class="fil67" d="M26.6442 1.80619l0.368417 -0.604841m0.733688 1.4292l0.44721 -0.548646m0.524598 1.5158l0.517703 -0.482426m0.305436 1.57143l0.579019 -0.407598m0.0808439 1.5951l0.629305 -0.324903m-0.144458 1.5863l0.66776 -0.236084m-0.365209 1.54523l0.693798 -0.142838m-0.574823 1.47299l0.706215 -0.046862m-0.768811 1.37257l0.706339 0.0498853m-0.945076 1.24741l0.692749 0.145692m-1.10442 1.09931l0.666742 0.238891m-1.23826 0.932659l0.627531 0.327371m-1.34766 0.750409l0.57709 0.409911m-1.42807 0.55875l0.515868 0.484816m-1.48288 0.359008l0.444757 0.550389m-1.50929 0.157446l0.365625 0.606044m-1.51074 -0.0468466l0.279537 0.650098m-1.48501 -0.24665l0.18825 0.682029m-1.43409 -0.440731l0.093508 0.701326m-1.35897 -0.624492l-0.00300793 0.707388m-1.2619 -0.794001l-0.0994468 0.700508m-1.14471 -0.951431l-0.194081 0.680563"/>
  <path class="fil68" d="M26.8949 2.64702c2.81372,2.0825 4.21793,5.59415 3.63296,9.03082l-0.128539 0.043669 -0.0778668 0.215491 -0.106897 0.0596804 -0.11771 -0.177329c0,0 0.0770493,-0.0729461 0.092783,-0.208874 0.0157338,-0.135928 -0.0215954,-0.232891 -0.0215954,-0.232891 0,0 -0.198894,0.126009 -0.271824,0.129341 -0.0729307,0.00334729 0.0140679,-0.172377 0.0140679,-0.172377l0.0596341 -0.214674c0,0 -0.0672388,-0.592562 -0.0921043,-0.657209 -0.024881,-0.0646628 -0.080412,-0.0803657 -0.080412,-0.0803657l-0.160762 0.0804274 -0.0828646 0.10608 -0.158263 0.215522 -0.512119 0.388779 -0.147497 0.211357 -0.168953 0.621623 -0.188898 0.344801 -0.152494 0.02158 -0.0364962 -0.159127 -0.01342 -0.934849c0,0 0.0247267,-0.819684 0.0263618,-0.8636 0.00163508,-0.0439158 0.0861656,-0.193957 0.106049,-0.238722 0.0198832,-0.0447487 -0.188975,-0.137532 -0.188975,-0.137532l-0.464239 -0.643882 -0.012479 -0.273506c0,0 -0.25444,-0.0505024 -0.299204,-0.0703855 -0.0447487,-0.0198832 -0.478245,-0.230315 -0.51306,-0.27258 -0.0348149,-0.0422807 -0.186507,-0.16323 -0.186507,-0.16323l-0.182358 -0.152479 -0.230423 -0.0844842c0,0 -0.130961,-0.147512 -0.16994,-0.200544 -0.0389643,-0.0530475 -0.129326,-0.191428 -0.155857,-0.29254 -0.0265315,-0.101097 -0.0895592,-0.280925 -0.121058,-0.330656 -0.0314984,-0.0497311 -0.276822,-0.0604517 -0.276822,-0.0604517l-0.0173689 0.179859 0.101159 0.295008 0.22632 0.314907 -0.0604825 0.196441 0.0364962 0.0787306c0,0 0.165745,-0.0514279 0.204693,-0.0787769 0.0389488,-0.0273336 0.186476,0.0828492 0.186476,0.0828492l0.295039 -0.0207778 -0.0530013 0.199742 0.168274 0.164079 0.232937 0.29996 -0.333942 0.289332 -0.122646 0.115211 -0.0737328 0.145877 -0.354689 0.155039 -0.304186 -0.0994005 -0.125114 0.14091 -0.179843 0.0630277 -1.20587 0.000215954 -0.208889 -0.17318 0.0885411 -0.782401 -0.0249118 -0.305806 -0.150057 -0.325689 0.0405068 -0.553629 -0.183206 -0.251093 -0.0505949 -0.308305 -0.0663904 -0.413552 -0.207979 0.24702 0.0796407 0.464116 -0.0637835 0.203876 0.0713111 0.120996 -0.0463067 0.586778 0.160824 0.241159 -0.0363882 0.484014 0.365625 0.725111 -0.0240172 0.194775 0.151708 0.201377 1.05092 0.20784 -0.0231688 0.132596 -1.30516 1.02793 -0.628997 0.229682 -0.607447 0.30178 -0.638082 0.431075 -0.167287 0.818866 -0.0977191 0.421048 -0.346328 0.498144 -0.352267 -0.111818 -0.42927 0.202287 -0.252759 0.0663441 -0.106018 0.399499 -0.163246 0.186507 -0.280123 -0.0530013 -0.581733 0.465057 -0.742542 0.223898 -1.10235 -0.373585 0.0869677 -0.256106 -0.124374 -0.323206 -3.08506e-005 -0.24119 -0.163323 -0.295841 0.0893741 -0.764153 -0.126117 -0.761623 0.150767 -0.540394 0.431723 -0.388779 0.159837 -0.66139 -0.00671 -0.467432 -0.230562 -0.888419 0.318995 -0.537108 0.225332 -0.426848 -0.179026 -0.159929 -0.300052 -0.16903 -0.234634 -0.497218 -0.806403 -0.0545592 -0.218036 -0.293358 -0.577661 -0.0869214 -0.257926 -0.927352 0.120965 -0.232089 0.0123402 -0.530429 0.168182 -0.398666 0.50217 -0.446793 0.249365 -0.460861 0.873456 -0.478353 0.739256 -0.136051 0.254394 -0.271053 0.755792 -0.173303 0.362232 0.250229 1.07331 0.217774 0.479942 0.427573 -0.270143 0.246203 0.300114 0.570967 0.572771 0.379477 0.261027 -0.205573 0.146694 0.011569 0.35145 0.334775 0.219656 0.0886336 0.312485 0.281743 0.302521 -0.0174614 0.368865 0.315709 0.226582 -0.198554 0.245262 -0.230469 0.0392882 -0.179026 0.0347994 -0.118528c0,0 -0.214658,-0.0596495 -0.258589,-0.0612846 -0.0439312,-0.0016505 -0.276004,-0.122616 -0.276004,-0.122616l-0.0845614 -0.091148 -0.162428 0.043962 -0.267752 -0.26186 0.03065 -0.129295 -0.0356632 -0.140879 -0.0439466 -0.162444 0.0985984 -0.0812295 -0.253622 -0.112666 -0.164094 0.00748126c0,0 0.0853943,0.189777 0.0655112,0.234526 -0.0198832,0.0447642 -0.0787152,0.116877 -0.0787152,0.116877l0.167441 0.145831 -0.265222 -0.046353 -0.21219 -0.0853326 -0.0182635 -0.240341 -0.0348457 -0.203058 0.0281357 -0.183993 0.104398 -0.194775 -0.142576 -0.16158 -0.20474 -0.242809 -0.045628 -0.27929 -0.147543 -0.0298016 -0.0803657 0.160793c0,0 0.149178,0.0662824 0.106928,0.101097 -0.0422498,0.0348149 -0.133429,0.0389488 -0.0977808,0.0994622 0.0356632,0.0604979 0.254502,0.291692 0.254502,0.291692l0.111077 0.192245c0,0 -0.066267,0.149193 -0.108548,0.103627 -0.0422807,-0.0455663 -0.0580453,-0.150828 -0.0969941,-0.123464 -0.0389488,0.0273644 -0.139198,0.152525 -0.139198,0.152525l-0.0522146 0.0571815 -0.103612 -0.108548 0.0952819 -0.154176 -0.142591 -0.241976 -0.154206 -0.25606 -0.0779131 -0.10608c0,0 0.0555001,-0.145044 0.0182018,-0.161611 -0.0372983,-0.0165667 -0.162459,-0.116831 -0.162459,-0.116831l-0.156644 0.0107977 -0.237889 -0.168213 -0.186445 0.15834 -0.143363 0.0613463 -0.217157 -0.0339356 -0.270991 0.0671771 -0.218777 0.170773 -0.262723 0.00832965 -0.190626 -0.093616 -0.20221 0.0530784 -0.0547443 -0.158294c0,0 0.0472476,-0.0861964 0.0132503,-0.110229 -0.0339819,-0.0240326 -0.0547443,-0.238675 -0.0547443,-0.238675l0.328157 -0.175771c0,0 0.0936623,-0.0298171 0.157461,-0.0729461 0.0638144,-0.0431136 0.16323,-0.186507 0.16323,-0.186507 0,0 0.238722,0.106049 0.291769,0.147466 0.0530475,0.0414323 0.263572,0.170681 0.263572,0.170681 0,0 0.116893,0.0787306 0.175709,0.00661744 0.058832,-0.0721286 0.249411,-0.300068 0.249411,-0.300068l-0.0920118 -0.174861 0.0331335 -0.0745966 0.244506 0.0728844c0,0 0.187309,0.0207007 0.232073,0.0405839 0.0447487,0.0198832 0.191428,0.0314521 0.191428,0.0314521 0,0 0.055531,-0.0646628 0.114378,-0.0563794 0.058832,0.00828337 0.388702,0.0297708 0.388702,0.0297708 0,0 0.0397664,-0.0895129 0.132596,-0.0572124 0.0928293,0.032316 0.215491,0.0778822 0.215491,0.0778822l0.147527 0.0298016 0.150011 -0.076278 0.0596495 -0.134277 0.240341 -0.0182635 -0.0140833 0.0919964 -0.0919809 0.0663133 0.00748126 0.0836976 0.230407 0.0844997c0,0 0.106095,0.0828646 0.155009,0.11353 0.0488981,0.03065 0.295903,0.158232 0.295903,0.158232l0.178162 -0.0994776 0.243642 -0.106126 0.15831 0.0256522 0.0745812 -0.0472322 -0.0953282 -0.087014 0.0372675 -0.144211 0.0927985 -0.128477 0.0265161 -0.0596804 -0.211357 -0.0671 -0.147512 0.0505795 -0.0521837 0.0571969 0.0240326 0.126811c0,0 -0.0405839,0.0712802 -0.0952819,0.0737791 -0.054698,0.00248347 -0.17901,0.00084839 -0.17901,0.00084839l-0.187309 0.0597112 -0.179843 -0.0173843 -0.130945 0.0132966 -0.0149317 -0.0870294 0.0555156 -0.0646628 0.0198523 -0.125145 0.0372829 -0.144211 -0.140046 0.0538959 -0.236223 -0.0513353c0,0 -0.020747,-0.0538805 0.0107668,-0.0845459 0.0314984,-0.0306655 0.133413,-0.119361 0.133413,-0.119361 0,0 0.176527,-0.0555618 0.235359,-0.0472939 0.0588474,0.00828337 0.416051,-0.0116769 0.416051,-0.0116769 0,0 0.266024,-0.0157801 0.333171,0.014037 0.0671462,0.0298325 0.392836,-0.0398435 0.392836,-0.0398435l0.492313 0.138318 0.339834 0.159898 0.250337 0.200513c0,0 0.208041,0.154947 0.176558,0.185612 -0.031483,0.0306809 -0.10608,0.0779439 -0.10608,0.0779439l-0.295055 -0.0596341 0.0232305 0.108579 0.15831 0.0256677 0.110229 0.093616 0.130128 -0.0315138 0.118512 -0.0455971 0.15996 0.062133 0.0339665 -0.056364c0,0 0.231209,-0.0580607 0.287573,-0.0240943 0.0563794,0.0339819 0.318301,0.168197 0.318301,0.168197 0,0 -0.0356324,0.100295 0.0977963,0.0613155 0.133429,-0.0389797 0.307503,0.0919347 0.307503,0.0919347l0.0687967 0.0662978c0,0 -0.0737945,-0.0952974 -0.101977,-0.152479 -0.028182,-0.0571815 -0.128493,-0.253592 -0.128493,-0.253592l0.184826 0.12678 0.035617 -0.100295c0,0 -0.104414,-0.0463992 -0.0439158,-0.082047 0.00934772,-0.00550682 0.0198678,-0.0136976 0.0311745,-0.023539zm-7.45655 16.5834c-0.628919,-0.132735 -1.25361,-0.33243 -1.86467,-0.603884 -0.778668,-0.345912 -1.48621,-0.785794 -2.1155,-1.3002 0.74265,-0.434299 -0.48514,-0.469823 1.09549,-0.193433l0.33152 0.0579682 -0.0877544 0.479032 0.422699 0.1342 0.749314 0.565105 -0.197212 0.162474 0.762518 0.213686 0.686271 0.304881 0.217327 0.180167zm-7.37975 -8.59157c-0.0762163,-1.3519 0.142499,-2.73959 0.692425,-4.06902 0.0128338,0.0276267 0.0221198,0.0433759 0.0265469,0.0431908l0.0681026 0.851969 0.207362 0.778591c0,0 -0.229975,0.559243 -0.314475,0.628858 -0.0844997,0.0696297 -0.260595,0.144088 -0.353378,0.352961 -0.0927985,0.208874 -0.175571,0.797317 -0.175571,0.797317l-0.0628889 0.543695c0,0 -0.0352313,0.0296937 -0.0881246,0.0724371zm17.6913 3.49043c-0.0398435,-0.163971 -0.070401,-0.324964 -0.070401,-0.324964 0,0 -0.0896054,-0.682892 -0.144303,-0.600012 -0.054698,0.0828954 -0.107638,0.684574 -0.0852401,0.77492 0.0223975,0.0903458 -0.135017,0.404466 -0.1723,0.468296 -0.0372829,0.0638298 -0.116029,0.100295 -0.154129,0.145892 -0.0381159,0.0455817 0.0133274,0.372119 -0.00240634,0.42765 -0.00762009,0.0268708 0.0237704,0.0836204 0.0581996,0.135048m-0.522809 -2.86912l-0.048821 0.371302c0,0 -0.159929,0.0986601 -0.20966,0.130158 -0.0497157,0.0314984 -0.108579,-0.0571661 -0.108579,-0.0571661l0.138365 -0.251154 0.126765 -0.184841 0.10193 -0.0082988zm-5.6511 2.12514l-0.0645548 0.507229 -0.169076 0.0588783 -0.106033 0.15831 -0.655482 0.610918 -0.333942 0.289316 -0.12186 -0.107715 -0.145846 0.00664829 -0.191474 -0.111864 0.0347223 -0.440083 0.155795 -0.109411 0.164927 0.010736 0.13838 -0.251154c0,0 -0.0381621,-0.115181 0.00825252,-0.139229 0.0464147,-0.0240326 0.270143,-0.246187 0.270143,-0.246187l0.23539 0.113499 0.393684 -0.0216262 0.0248347 -0.0961458 0.362139 -0.23212zm-0.649666 -13.1547l-0.162444 0.043962 -0.278473 -0.0165205 -0.106928 -0.101097c0,0 0.120996,-0.0712956 0.172377,-0.0663287 0.0513816,0.00496694 0.218823,0.070401 0.218823,0.070401l0.156644 0.0695834zm-0.382794 0.580222l-0.0107514 0.164942 -0.149162 0.0944952 -0.0836821 0.168259c0,0 -0.0555156,0.145059 -0.094449,0.172408 -0.0389488,0.027349 -0.266024,0.0157801 -0.266024,0.0157801l-0.182358 -0.0720669c0,0 -0.256923,-0.0248193 -0.240357,-0.0621176 0.0165667,-0.0372983 0.167395,-0.0953436 0.167395,-0.0953436l0.203876 -0.016613 0.0787152 -0.116862 0.21546 -0.0829109 -0.0290149 -0.155811 0.149162 -0.0141296 0.0513816 -0.0754142 0.189808 0.0753833zm-0.602542 0.00922432l0.00499779 0.109396 -0.329006 0.0771418 -0.175694 0.0737791 -0.0903458 -0.057999 0.156613 -0.171575 0.160793 -3.08506e-005 0.17736 0.0430674c0,0 0.108548,-0.103627 0.0952819,-0.0737791zm0.383364 2.55506c-0.0439312,-0.00163508 -0.141712,0.017446 -0.141712,0.017446 0,0 -0.0232305,-0.108579 -0.0829109,-0.135079 -0.0596804,-0.0265161 -0.118528,-0.0347994 -0.118528,-0.0347994l-0.0397664 0.0895129 0.17989 0.258558 0.246126 -0.131824 -0.0430982 -0.0638144zm-0.558719 -0.712648l0.272164 0.131254 -0.126271 0.103272 -0.300839 0.0539113c0,0 -0.058832,-0.00828337 -0.0290149,-0.0754142 0.0298171,-0.0671308 0.183962,-0.213023 0.183962,-0.213023zm1.70013 1.70203l-0.0895129 0.0406148 -0.22544 -0.0554693 -0.0165976 -0.123495 0.118528 0.034784 0.213023 0.103565zm3.4817 -0.0163508l-0.157446 0.0729616 0.116091 0.382038 -0.0306346 0.209691c0,0 0.0514433,0.246141 0.0572432,0.293373 0.0057999,0.0472476 0.0157955,0.346436 -0.0248193,0.337335 -0.0405993,-0.00911634 -0.220473,-0.106882 -0.220473,-0.106882l-0.221322 -0.285892 0.125932 -0.283455 -0.116091 -0.301672 -0.048096 -0.173195 -0.045628 -0.198909 0.062966 -0.141727 0.130945 -0.0132966 0.201392 -0.0712956 0.116044 0.140864 0.0538959 0.140062zm-2.71556 -2.7337l-0.0770801 0.0729461 -0.118512 -0.0347686 0.195593 -0.0381776zm2.72997 -0.234171l-0.219625 0.072144 -0.106064 0.0779285 -0.0356478 -0.0604979 0.104414 -0.114394 0.256923 0.0248193zm-1.26222 2.89141l-0.268616 -0.440854 -0.255304 -0.229544 -0.372119 -0.0670691 -0.346452 -0.0645702c0,0 -0.086181,-0.0472168 -0.117679,-0.0165513 -0.0314984,0.0306655 -0.135912,0.145059 -0.135912,0.145059l0.119407 0.294191 0.251124 0.0579682c0,0 0.182342,-0.0082988 0.23124,0.0223512 0.0488981,0.03065 0.166608,0.127598 0.166608,0.127598l0.214689 0.220412 0.313303 0.139182c0,0 0.203027,-0.195623 0.199711,-0.188173z"/>
  <path class="fil69" d="M24.9479 0.239107c0.0255905,0.0096408 0.14091,-0.00100264 0.166408,0.00882326 0.0764477,0.0294931 0.0626883,0.0802577 0.138241,0.111494 3.78171,1.56318 6.44285,5.28777 6.44285,9.6342 0,5.75528 -4.66559,10.4209 -10.4208,10.4209 -1.51584,0 -2.95593,-0.323993 -4.25525,-0.905973l0.301981 -0.64018c1.20771,0.53879 2.5454,0.838734 3.95327,0.838734 5.36456,0 9.71342,-4.34886 9.71342,-9.71345 0,-4.35119 -2.86127,-8.03358 -6.80478,-9.26965l0.0625803 -0.137671c0.238629,0.0105509 0.548322,-0.0866592 0.702128,-0.347192z"/>
  <path class="fil70" d="M25.1022 0.239107c3.94267,1.48547 6.74749,5.29229 6.74749,9.75451 0,5.75528 -4.66559,10.4209 -10.4208,10.4209 -1.51584,0 -2.95593,-0.323993 -4.25525,-0.905973l0.301981 -0.64018c1.20771,0.53879 2.5454,0.838734 3.95327,0.838734 5.36456,0 9.71342,-4.34886 9.71342,-9.71345 0,-4.35119 -2.86127,-8.03358 -6.80478,-9.26965l0.0625803 -0.137671c0.238629,0.0105509 0.548322,-0.0866592 0.702128,-0.347192z"/>
  <path class="fil71" d="M26.5207 19.087c-1.50578,0.844981 -3.24235,1.32745 -5.09187,1.32745 -1.51584,-1.54253e-005 -2.95593,-0.324008 -4.25525,-0.905942l0.301965 -0.640211c1.20771,0.53879 2.54542,0.838734 3.95327,0.838749 2.20635,0 4.2405,-0.73611 5.87135,-1.97547 -0.220967,0.47496 -0.48221,0.928139 -0.77947,1.35542z"/>
  <path class="fil67" d="M26.6769 1.81981l0.368417 -0.604841m0.733688 1.4292l0.44721 -0.548646m0.524598 1.5158l0.517703 -0.482426m0.305436 1.57143l0.579019 -0.407598m0.0808439 1.5951l0.629305 -0.324903m-0.144458 1.5863l0.66776 -0.236084m-0.365209 1.54523l0.693798 -0.142838m-0.574823 1.47299l0.706215 -0.046862m-0.768811 1.37257l0.706339 0.0498853m-0.945076 1.24741l0.692749 0.145692m-1.10442 1.09931l0.666742 0.238891m-1.23826 0.932659l0.627531 0.327371m-1.34766 0.750409l0.57709 0.409911m-1.42807 0.55875l0.515868 0.484816m-1.48288 0.359008l0.444757 0.550389m-1.50929 0.157446l0.365625 0.606044m-1.51074 -0.0468466l0.279537 0.650098m-1.48501 -0.24665l0.18825 0.682029m-1.43409 -0.440731l0.093508 0.701326m-1.35897 -0.624492l-0.00300793 0.707388m-1.2619 -0.794001l-0.0994468 0.700508m-1.14471 -0.951431l-0.194081 0.680563"/>
  <path class="fil72" d="M26.644 1.79978l0.368417 -0.604841 0.0656808 0.0400749 -0.368417 0.604841 -0.0656808 -0.0400749zm1.10511 0.820147l0.44721 -0.548646 0.059665 0.0484971 -0.44721 0.548646 -0.059665 -0.0484971zm0.975433 0.963231l0.517703 -0.482426 0.0524151 0.0563331 -0.517703 0.482426 -0.0524151 -0.0563331zm0.827196 1.08569l0.579019 -0.407598 0.0443014 0.062966 -0.579019 0.407598 -0.0443014 -0.062966zm0.664382 1.18478l0.629305 -0.324903 0.0352622 0.0683957 -0.629305 0.324903 -0.0352622 -0.0683957zm0.489675 1.25929l0.66776 -0.236084 0.025606 0.0726222 -0.66776 0.236084 -0.025606 -0.0726222zm0.307673 1.3078l0.693798 -0.142838 0.0153636 0.0753062 -0.693798 0.142838 -0.0153636 -0.0753062zm0.124251 1.3294l0.706215 -0.046862 0.00481269 0.0768179 -0.706215 0.046862 -0.00481269 -0.0768179zm-0.0574746 1.32571l0.706339 0.0498853 -0.0054297 0.0768179 -0.706339 -0.0498853 0.0054297 -0.0768179zm-0.233616 1.29805l0.692749 0.145692 -0.0156721 0.0753062 -0.692749 -0.145692 0.0156721 -0.0753062zm-0.406549 1.2465l0.666742 0.238891 -0.0259145 0.0723137 -0.666742 -0.238891 0.0259145 -0.0723137zm-0.566709 1.17366l0.627531 0.327371 -0.0355398 0.0680872 -0.627531 -0.327371 0.0355398 -0.0680872zm-0.715609 1.08049l0.57709 0.409911 -0.0445791 0.0626575 -0.57709 -0.409911 0.0445791 -0.0626575zm-0.846909 0.971978l0.515868 0.484816 -0.0527236 0.0560246 -0.515868 -0.484816 0.0527236 -0.0560246zm-0.963401 0.847727l0.444757 0.550389 -0.0599426 0.0482194 -0.444757 -0.550389 0.0599426 -0.0482194zm-1.06151 0.712062l0.365625 0.606044 -0.0659893 0.0397664 -0.365625 -0.606044 0.0659893 -0.0397664zm-1.1427 0.563871l0.279537 0.650098 -0.070802 0.0304186 -0.279537 -0.650098 0.070802 -0.0304186zm-1.20382 0.408415l0.18825 0.682029 -0.074103 0.0204848 -0.18825 -0.682029 0.074103 -0.0204848zm-1.24477 0.246573l0.093508 0.701326 -0.0762317 0.00993388 -0.093508 -0.701326 0.0762317 -0.00993388zm-1.26517 0.0819545l-0.00300793 0.707388 -0.0768179 -0.000308506 0.00300793 -0.707388 0.0768179 0.000308506zm-1.2652 -0.0814917l-0.0994468 0.700508 -0.0762317 -0.0105509 0.0994468 -0.700508 0.0762317 0.0105509zm-1.24522 -0.245648l-0.194081 0.680563 -0.074103 -0.0211018 0.194081 -0.680563 0.074103 0.0211018z"/>
  <g id="_398794152">
   <path id="_398796336" class="fil73" d="M21.9197 28.3208l0.212992 0.0587395 3.28012 -0.421897 1.51769 -0.375081 0.814501 -0.575594 0.00512119 -0.294808c0.00886953,-0.237642 -0.324748,-0.1489 -0.452747,-0.393962 -0.157585,-0.301688 -0.340621,-0.667313 -0.762086,-0.856627 -1.06279,-0.477443 -2.70201,-0.582875 -4.61385,-0.582983l-0.000617011 0 -0.00225209 0 -0.000617011 0c-1.91184,0.000107977 -3.55107,0.10554 -4.61385,0.582983 -0.421465,0.189314 -0.604501,0.55494 -0.762086,0.856627 -0.127999,0.245061 -0.461617,0.15632 -0.452747,0.393962l0.00512119 0.294808 0.814501 0.575594 1.51769 0.375081 3.28012 0.421897 0.212992 -0.0587395z"/>
   <ellipse id="_398793600" class="fil74" cx="21.9197" cy="25.812" rx="4.90019" ry="1.06311"/>
   <path id="_398796624" class="fil75" d="M21.9197 24.7489c2.70629,0 4.90019,0.475978 4.90019,1.06311 0,0.184008 -0.215584,0.357095 -0.594814,0.508047 -0.861193,0.305158 -2.41193,0.508803 -4.18198,0.508803 -2.70629,0 -4.90019,-0.475993 -4.90019,-1.06313 0,-0.183962 0.215445,-0.357003 0.59449,-0.507924 0.861132,-0.305235 2.41202,-0.508911 4.1823,-0.508911z"/>
   <path id="_398793312" class="fil76" d="M21.9197 24.7489c0.0248501,0 0.0495614,0.000138827 0.074319,0.000215954l-0.137424 0.274848c-0.127521,0.0136205 -3.84793,0.386187 -4.48107,1.06613 -0.150875,-0.10227 -0.232613,-0.211234 -0.232613,-0.324363 0,-0.183962 0.215445,-0.357003 0.59449,-0.507924 0.861132,-0.305235 2.41202,-0.508911 4.1823,-0.508911z"/>
   <path id="_398796024" class="fil77" d="M22.9917 26.8089c-0.306886,0.0130652 -0.624014,0.0199295 -0.948562,0.0199295 -0.41423,0 -0.816367,-0.0111988 -1.20056,-0.0321926 -0.103581,-0.247992 -0.120502,-0.550235 0.265531,-1.1372 0.0795173,-0.0511811 0.409896,-0.154901 0.810861,-0.154901 0.400965,0 0.739287,0.104661 0.813606,0.156752 0.391185,0.595462 0.367137,0.897535 0.259129,1.14761z"/>
   <path id="_398793576" class="fil78" d="M16.0882 27.0619l0 -0.4115c0,0.756995 2.61088,1.37069 5.83156,1.37069 3.22067,0 5.83156,-0.613695 5.83156,-1.37069l-1.54253e-005 -0.000200529 -4.62758e-005 0.410482 6.17011e-005 0.0012186c0,0.807436 -2.61088,1.46201 -5.83156,1.46201 -3.22067,0 -5.83156,-0.654572 -5.83156,-1.46201z"/>
   <path id="_398795520" class="fil79" d="M16.0882 27.1236l0 -0.4115c0,0.756995 2.61088,1.37069 5.83156,1.37069 3.22067,0 5.83156,-0.613695 5.83156,-1.37069l-1.54253e-005 -0.000200529 -4.62758e-005 0.410482 6.17011e-005 0.0012186c0,0.807436 -2.61088,1.46201 -5.83156,1.46201 -3.22067,0 -5.83156,-0.654572 -5.83156,-1.46201z"/>
   <path id="_398794848" class="fil80" d="M19.9651 27.6175c-2.00439,-0.181232 -3.44932,-0.633038 -3.54851,-1.16816 -0.031267,0.0190656 -0.064308,0.0338585 -0.0968707,0.0470008 -0.00248347,0.0160731 -0.00376377,0.032208 -0.00376377,0.0484199 0,0.55477 1.47052,1.02908 3.54872,1.22097l0.100419 -0.148237z"/>
   <path id="_409634032" class="fil81" d="M27.5197 26.4963c-0.0325782,-0.0131423 -0.0655883,-0.0279198 -0.0968707,-0.0469854 -0.0611149,0.329669 -0.633177,0.627685 -1.53196,0.850334l0.124497 0.140416c0.935358,-0.234449 1.5081,-0.549202 1.5081,-0.895345 0,-0.016212 -0.0012803,-0.0323468 -0.00376377,-0.0484199z"/>
  </g>
  <path class="fil82" d="M25.7998 0.0132195l0.247715 0.110029c0.0775274,0.0344446 0.112774,0.12604 0.0783296,0.203583l-0.553752 1.24653 -0.529627 -0.235282 0.112311 -0.25282 0.0516284 -0.0274107 0.289671 -0.661205 -0.0297245 -0.0127567 0.12985 -0.292324c0.0344446,-0.0775429 0.126071,-0.11279 0.203598,-0.078345z"/>
  <path class="fil83" d="M25.1471 1.34882l0.542846 -1.23705c0,0 0.0482348,-0.083497 0.138812,-0.0410467 -0.0551299,0.0134817 -0.0851475,0.0760466 -0.0851475,0.0760466l-0.528763 1.22546 -0.0677478 -0.0234156z"/>
  <path class="fil84" d="M24.2633 0.974091c0.720407,0.285337 1.41959,0.593904 2.09363,0.930067 0.0227677,0.0113684 0.0338276,0.0378228 0.0234927,0.0610841 -0.027241,0.0613155 -0.0544821,0.122646 -0.0817231,0.183962 -0.0103349,0.0232613 -0.0386249,0.035509 -0.0610687,0.0235081 -0.675319,-0.360828 -1.37413,-0.668717 -2.09363,-0.930067 -0.0239246,-0.00868443 -0.0338431,-0.0378228 -0.0235081,-0.0610841 0.027241,-0.0613155 0.0544821,-0.122646 0.0817231,-0.183962 0.0103349,-0.0232613 0.0374063,-0.0328713 0.0610841,-0.0235081z"/>
  <path class="fil85" d="M18.787 25.2462l-0.0807976 0.625973 0 0.43814c0,0 -0.222139,0.104321 -0.161564,0.271223 0.0606059,0.166901 0.141373,0.605164 0.141373,0.709408 0,0.10429 -0.102408,2.01443 -0.102408,2.01443l-10.103 2.24922 -0.686718 -0.292093 -0.584232 -3.78791c0,0 0.585651,-1.10585 1.35315,-1.10585 0.767485,0 10.2242,-1.12254 10.2242,-1.12254z"/>
  <path class="fil0" d="M15.644 29.9598l-5.20096 1.15788 -0.022089 -0.198832 -0.767284 0.0245108 -1.42784 -3.0398c-0.00788232,-0.0167827 -0.0424349,0.00945569 -0.0503635,-0.0134046 -0.0341516,-0.0984287 -0.0405531,-0.284288 -0.0563485,-0.326121 0,0 2.90588,0.269387 3.1181,0.383657 0.212221,0.11427 2.98749,1.82842 3.33032,1.81208 0.0954362,-0.00455046 0.51741,0.0782524 1.07647,0.20002z"/>
  <g id="_398796984">
   <polygon id="_398793360" class="fil86" points="9.94761,29.2511 7.89881,29.5966 7.89881,29.6782 9.94761,29.3409 "/>
   <path id="_398795640" class="fil86" d="M7.9886 30.7067c0.0979505,0 2.48958,-0.628534 2.48958,-0.628534l-2.44878 0.750949c0,0 -0.0489753,-0.106095 -0.0407999,-0.122415z"/>
  </g>
  <g id="_398796168">
   <path id="_398795400" class="fil87" d="M8.91103 29.5115c-0.0126642,-0.0263618 -0.0252975,-0.0527699 -0.0378691,-0.0792859l1.07445 -0.181154 0 0.0897905 -1.03658 0.17065z"/>
   <path id="_398796792" class="fil87" d="M9.37172 30.4175l-0.0238629 -0.0450727c0.582181,-0.15018 1.13032,-0.294237 1.13032,-0.294237l-1.10646 0.33931z"/>
  </g>
  <path class="fil88" d="M0.244151 26.7547l0.232243 -0.80324 2.18127 0.020855 5.68295 1.1684c0,0 -0.486174,2.20222 -0.465951,2.4317 0.0201917,0.229466 0.100989,0.605149 0.080813,0.918066 -0.020238,0.312948 0.282745,0.980585 0.282745,0.980585l-4.83468 -0.625927 -3.00936 -0.751118 -0.282776 -0.208627 0.13275 -3.1307z"/>
  <path class="fil89" d="M0.342071 26.4161l0.134323 -0.464594 2.18127 0.020855 5.68295 1.1684c0,0 -0.0629814,0.285291 -0.142653,0.661189 -0.0185566,0.0500087 -0.0176311,0.0933846 -0.0176311,0.104954l-3.27727 -0.628503 -2.02431 -0.424457 -1.07746 -0.228556c0,0 -0.848915,-0.293852 -1.04482,-0.261196 -0.0692595,0.0115535 -0.232428,0.0312516 -0.414415,0.0519061z"/>
  <path class="fil90" d="M0.385215 25.8735c0,0 0.979875,-0.339402 2.09066,-0.547983 1.11079,-0.208581 4.28139,-0.458948 5.14987,-0.730186 0.868459,-0.271192 3.24778,-0.751118 3.24778,-0.751118l1.34945 -0.1837c0,0 0.989686,0.0417871 1.25221,0.146047 0.262554,0.104244 5.45322,1.16839 5.45322,1.16839l0.22217 0.333849 -0.201979 0.166901 -10.9262 2.12901 -7.2026 -1.48632 -0.43453 -0.244892z"/>
  <path class="fil91" d="M1.10457 25.8745l1.68148 -0.506072 0.228556 0.0489753 -1.63252 0.538728 -0.191813 0.0642771c0,0 -0.0510114,-0.104074 -0.0857028,-0.145908z"/>
  <path class="fil92" d="M18.5928 28.8434l0.495753 0.420277 -3.5345 0.8346 -5.43749 1.20596 -1.81773 0.584217c-1.05901,-0.174861 -5.55361,-1.21216 -6.94461,-1.45252 -0.184363,-0.0318069 -0.265238,-0.147697 -0.32535,-0.147697 -0.0349537,0 -0.133814,0.0917495 -0.191644,0.0818157 -0.242701,-0.0418796 -0.624832,-0.150782 -0.624832,-0.150782 0,0 -0.119731,-0.306948 -0.181756,-0.438124 -0.0596187,-0.12621 -0.0255751,-2.44164 0.045304,-2.69481 0.13656,-0.487855 0.0414169,-0.715717 0.290921,-1.15756 0.101745,-0.180152 0.452886,-0.0816151 0.654834,-0.0816151 0,0 0.0215645,0.0012186 0.055531,0.0140679 0.0656191,0.024773 0.164696,0.256013 0.332754,0.146093 0.0625186,-0.0409233 0.651209,0.107483 0.722582,0.131963 0.121027,0.041602 1.37342,0.500751 1.37342,0.500751l3.98637 0.625927 1.26109 0.320167c0,0 -0.161564,0.146047 -0.262554,0.146047 -0.100989,0 -4.95281,-0.791301 -5.25911,-0.902564 -0.306284,-0.111278 -1.22133,-0.520742 -1.87059,-0.520742 -0.0164896,0 -0.0330101,0 -0.0494997,0 -0.0367122,0 -0.087739,0.0101807 -0.124467,0.0101807 -0.0625958,0 -0.127166,-0.0754759 -0.189762,-0.0754759 -0.119808,0 -0.239616,0 -0.359471,0 0,0 -0.168351,0.336965 -0.201979,0.459041 -0.185227,0.672527 -0.233662,2.1629 -0.0822476,2.97419 0.0201917,0.0417254 0.0404142,0.0834816 0.0606059,0.125192 2.59449,0.542461 5.18899,1.08497 7.78347,1.62743 0,0 3.11476,-0.955596 3.66014,-0.955596 0.545376,0 3.3123,-0.751211 3.95862,-0.77202 0.646288,-0.0208241 2.67039,-0.423702 2.67039,-0.423702l0.178856 -1.34035 -0.0730541 0.905633z"/>
  <path class="fil93" d="M0.70094 26.3063c-0.048929,0.100496 -0.149934,0.312902 -0.175139,0.404451 -0.185227,0.672511 -0.239786,2.13228 -0.0883714,2.94357 0.0201917,0.0417254 0.132241,0.105941 0.152433,0.147651 2.59449,0.542461 6.3434,1.34805 7.64063,1.61927 1.10949,-0.430766 1.76729,-0.540995 2.8751,-0.812773l0.144998 0.0818928 -2.963 0.93869 -6.91532 -1.46048c-0.166423,-0.148299 -0.344061,-0.184039 -0.532249,-0.114687l-0.374202 -0.110383c-0.110198,-0.0476178 -0.134678,-0.0870911 -0.206097,-0.814239l-0.0232305 -1.00173 0.108933 -1.13481 0.277532 -0.742804c-0.0141604,0.0070802 0.0442551,-0.046754 0.0779748,0.0563794z"/>
  <rect class="fil94" transform="matrix(0.913882 0.40598 -0.40598 0.913882 17.3982 18.4048)" width="0.538728" height="1.51825" rx="0.0771264" ry="0.0771264"/>
  <path class="fil95" d="M17.1892 18.6592c0.18788,0.147743 0.387005,0.22669 0.579327,0.257355 0.0251278,0.00401057 0.0338276,0.0378228 0.0234927,0.0610841 -0.110075,0.247807 -0.220165,0.49563 -0.330255,0.743437 -0.0103349,0.0232613 -0.0361106,0.0284751 -0.0610841,0.0235081 -0.233462,-0.0464609 -0.429825,-0.12911 -0.579327,-0.257355 -0.0193124,-0.0165822 -0.0338276,-0.0378228 -0.0234927,-0.0610841 0.110075,-0.247807 0.22018,-0.49563 0.330255,-0.743437 0.0103349,-0.0232613 0.0410775,-0.0392265 0.0610841,-0.0235081z"/>
  <path class="fil89" d="M18.2923 22.4897l-0.0668994 0.501645 0 0.351172c0,0 -0.183946,0.083605 -0.133768,0.217373 0.0501784,0.133768 0.117047,0.484971 0.117047,0.568545 0,0.0835896 0,0.568514 0,0.568514l-10.553 1.71774 -0.568514 -0.234094 -0.568545 -1.98988c0,0 0.484894,-0.886259 1.12034,-0.886259 0.635444,0 10.6533,-0.814763 10.6533,-0.814763z"/>
  <path class="fil96" d="M2.29636 23.6139l0.192292 -0.643789 1.80596 0.016721 3.16038 0.936407c0,0 -0.317745,0.719018 -0.300993,0.902965 0.0167519,0.183931 0.083605,0.484955 0.0668994,0.73577 -0.016721,0.2508 0.234094,0.785887 0.234094,0.785887l-2.45806 -0.501645 -2.49152 -0.601987 -0.234125 -0.167195 0.0250815 -1.46313z"/>
  <path class="fil97" d="M2.69757 23.8753c0.00178933,0.000231379 0.620852,0.0817077 1.06208,0.196086 0.251509,0.0651872 0.592361,0.204308 0.878608,0.321123 0.216478,0.0883406 0.401751,0.163955 0.492483,0.184887 0.204863,0.0472785 1.87922,0.488472 2.00103,0.520572l0.0936623 -0.312254 -0.481917 -0.160639c-0.0240326,-0.00350154 -0.787183,-0.115458 -1.02919,-0.196132 -0.116384,-0.0387791 -0.335423,-0.10429 -0.546009,-0.167272 -0.228356,-0.0682877 -0.446839,-0.133629 -0.515389,-0.159328 -0.130158,-0.0488056 -1.00877,-0.260332 -1.01128,-0.260934l-0.000694137 -0.000185103 -0.000447333 -0.000169678c-0.0015271,-0.000632436 -0.5368,-0.227693 -0.959097,-0.162737l-0.00228294 -0.0152402c0.420802,-0.0647399 0.951169,0.156998 0.966872,0.163585 0.0285985,0.0068951 0.883282,0.2129 1.0123,0.261273 0.0674393,0.025282 0.286015,0.0906544 0.514433,0.158957 0.209845,0.06275 0.428098,0.12803 0.54641,0.167457 0.244182,0.0813992 1.02492,0.195269 1.02715,0.195577l0.000632436 7.71264e-005 0.000694137 0.000246804 0.489753 0.163246 0.00712648 0.00236007 -0.00214411 0.0071419 -0.0979505 0.326507 -0.00212869 0.00712648 -0.00721903 -0.00189731c-0.00513662,-0.001342 -1.79564,-0.473402 -2.00774,-0.522346 -0.0921969,-0.0212715 -0.277902,-0.0970558 -0.494858,-0.185597 -0.286015,-0.116723 -0.626559,-0.255705 -0.876665,-0.320537 -0.440299,-0.114147 -1.05839,-0.1955 -1.06016,-0.195716l0.00194358 -0.0152402z"/>
  <path class="fil89" d="M2.38973 23.3012l0.0989223 -0.331165 1.80596 0.016721 3.16038 0.936407c0,0 -0.162382,0.367476 -0.248856,0.644221l-1.30475 -0.351835 -1.56721 -0.489753 -1.19174 -0.391802c0,0 -0.431939,-0.0240017 -0.752707,-0.0327941z"/>
  <path class="fil98" d="M2.40184 22.908c0,0 0.838888,-0.215167 1.75857,-0.382393 0.919686,-0.167225 1.99347,-0.288885 2.77778,-0.424612 0.784314,-0.135712 3.05849,-0.585667 3.05849,-0.585667l2.24069 -0.451498c0,0 0.122847,0.00505949 0.285938,0.0160114 0.0286602,0.00189731 0.0423115,0.0286602 0.0729924,0.0308197 0.0295548,0.00205156 0.0556853,-0.012479 0.0859959,-0.0110291 0.237333,0.0114918 0.488596,0.0409541 0.591822,0.0812758 0.216849,0.0846848 5.10247,1.13228 5.10247,1.13228 0.263448,0.101252 0.146,0.317529 -0.0159189,0.33604l-11.0562 1.75894 -4.16051 -1.29319 -0.436397 -0.0437307 -0.30576 -0.163246z"/>
  <path class="fil99" d="M2.48082 22.8707l0.375467 0.00815997 0.146926 0.204076 0.106126 -0.179581 0.220381 0.00815997 0.538728 0.171421 1.0693 0.359147 0.636678 0.187741 1.08563 0.334667 0.857059 0.293852 0.179581 0.13059 -1.2652 -0.375467 -3.15891 -0.99584c0,0 -0.285692,0.0816306 -0.334667,0.0897905 -0.0489753,0.00815997 -0.440777,-0.0734552 -0.440777,-0.0734552l-0.0489753 -0.0489753c0,0 0.0408153,-0.114286 0.0326553,-0.114286z"/>
  <path class="fil100" d="M17.4545 24.3412l0.551793 0.167225 -2.92627 0.668886 -6.06997 1.03672 -1.50494 0.468219 -2.0066 -0.535118c0,0 -2.35774,-0.66884 -2.50824,-0.66884 -0.0449955,0 -0.156644,-0.0977037 -0.239462,-0.114425 -0.0608373,-0.0122939 -0.0892969,0.0584618 -0.150073,0.0438386 -0.133352,-0.0321463 -0.24591,-0.0631974 -0.24591,-0.0631974 0,0 -0.109674,-0.225949 -0.109674,-0.342996 0,-0.117047 -0.0407999,-0.944551 -0.0407999,-1.1285 0,-0.183931 0.117047,-0.785918 0.117047,-0.785918l0.100681 -0.192507 0.397864 -0.00624724 0.0507492 0.100141c0,0 0.146725,-0.0869986 0.216401,-0.0698457 0.228942,0.0563794 0.695803,0.176295 0.772683,0.201901 0.100295,0.0333957 1.13709,0.401319 1.13709,0.401319l1.75575 0.501645 0.946001 0.315339c0,0 -0.427604,0.0190811 -0.511225,0.0190811 -0.083605,0 -2.4581,-0.618692 -2.4581,-0.618692l-1.60739 -0.590202 -0.291723 0.0712956 -0.0458902 -0.0315601 -0.109936 -0.004026c0,0 -0.18697,0.286956 -0.170249,0.387298 0.0167056,0.100326 0.0167056,0.836065 0.0167056,0.836065l0.0163045 0.583276 0.0501939 0.100326 4.83417 1.22267c0,0 4.14695,-0.836081 4.59844,-0.836081 0.451498,0 2.74234,-0.602002 3.27745,-0.618723 0.535103,-0.016721 1.95643,-0.367847 1.95643,-0.367847l0.317714 0 -0.117047 -0.15052z"/>
  <path class="fil101" d="M9.45317 26.1384l-0.44306 0.0756764 -1.19102 0.370546 -1.08705 -0.336456 -2.28552 -0.587703 -1.5512 -0.34929 -0.103473 -0.083497 -0.137007 0.0287219c-0.14037,0.029416 -0.216309,-0.134663 -0.248964,-0.216293 -0.0326553,-0.0816306 -0.00815997,-1.33049 -0.00815997,-1.33049l0.130606 -0.546888 0.210879 0.0204076c-0.0442705,0.067717 -0.152263,0.273228 -0.137084,0.364468 0.011862,0.0712339 0.0294623,0.563362 0.0152093,0.770122 -0.00399515,0.0579373 -0.0270868,0.145522 -0.0270868,0.145522l0.00815997 0.471026 0.0297862 0.124821 4.79336 1.25532c0,0 0.999481,-0.2015 2.07049,-0.406657l-0.0388717 0.230639z"/>
  <path class="fil2" d="M2.65373 25.0848c0,0 0.081646,0.0040877 0.102038,0.0040877 0.0203922,0 0.0285676,-0.0612229 0.0285676,-0.0612229l0.0775429 0.0652952 0.244876 0.0775429 0.799924 0.195901 1.64884 0.424457 1.63252 0.424442 -0.0571507 0.0408153c0,0 -1.4203,-0.375482 -1.4611,-0.383642 -0.0407999,-0.00815997 -1.10194,-0.293852 -1.10194,-0.293852l-1.15093 -0.285676 -0.383642 -0.114286 -0.228541 -0.0571352 -0.151013 -0.0367276z"/>
  <g id="_401361536">
   <path id="_401358632" class="fil94 str0" d="M7.10757 24.8442l-0.977916 -0.0227523c-0.0818774,-0.00191273 -0.136529,0.168861 -0.0834353,0.231225l5.69768 6.69667c0.158927,0.18697 0.169447,0.189145 0.424504,0.163292l6.61382 -0.670089c0,0 0.363882,0.272889 0.545823,0.333541 0.181941,0.0606522 0.727765,0 0.727765,0l7.05028 -0.773238c0.117186,-0.0128647 0.255813,-0.211481 0.181941,-0.30323l-4.57889 -5.68576 -15.6016 0.0303415z"/>
   <path id="_401358152" class="fil87" d="M26.8938 28.8924l0.14782 0.348766c0,0 -0.128755,0.068226 -0.113684,0.17429 0.00621639,0.0438695 0.0337814,0.13784 0.0330101,0.250306 -0.00029308,0.0405685 -0.00717275,0.0357866 -0.0114918,0.0906235 -0.00303878,0.0386866 -0.00300793,0.135727 -0.00687967,0.174321 -0.0121551,0.121258 -0.0260224,0.227708 -0.0260224,0.227708l0.0302952 0.356324c-2.41328,0.2628 -4.82654,0.525632 -7.23981,0.788417 0.226351,-0.31193 0.3852,-0.648371 0.50035,-1.00068 0.115165,-0.352298 0.0606368,-0.742928 0.197104,-0.742928 0.136467,0 4.82148,-1.27359 4.82148,-1.27359l1.66783 0.606445z"/>
   <path id="_401361104" class="fil89" d="M20.0738 30.5887l0.01197 -0.0239555 0.00192816 -0.000493609c0.829402,-0.1371 1.62479,-0.191135 2.46192,-0.261566l-1.24706 0.126996c-0.441734,0.0311899 -0.780704,0.0897597 -1.22876,0.159019z"/>
   <path id="_401360672" class="fil89 str1" d="M26.8938 28.8924l0.103905 0.245123c-0.401335,0.0923203 -1.00937,0.237333 -1.13897,0.297153 -0.197089,0.0909783 -4.599,0.79181 -4.88216,0.803595 -0.283177,0.0117695 -0.585605,0.109273 -0.819236,0.202225l0.050055 -0.138025c0,0 0.0606368,-0.742928 0.197104,-0.742928 0.136467,0 4.82148,-1.27359 4.82148,-1.27359l1.66783 0.606445z"/>
   <path id="_401359688" class="fil102 str1" d="M8.53279 24.2074l-1.39491 0.0909783c0,0 2.15303,3.18402 2.94143,3.79048 0.788401,0.60646 2.27427,3.06269 2.27427,3.06269l3.03238 -0.0303261 4.30597 -0.515482 0.272919 -0.697454 -4.91246 -3.39629 -3.48722 -1.51617c0,0 -3.15368,-0.849084 -3.03238,-0.788432z"/>
   <path id="_401360192" class="fil89" d="M8.53279 24.2074l-1.06077 0.0691669 1.36002 1.27673c0,0 1.78912,1.84974 2.00137,2.18331 0.212252,0.333572 1.75877,2.18331 1.75877,2.18331l0.454861 0.72778 1.9407 -0.15163c0,0 2.09154,-0.309169 3.00207,-0.394208 0.910508,-0.0850396 1.70212,0.138858 2.02489,0.208827l-0.0498545 -0.402399 -4.91246 -3.39629 -3.48722 -1.51617c0,0 -3.15368,-0.849084 -3.03238,-0.788432z"/>
   <path id="_401359472" class="fil103 str1" d="M9.26057 23.8738l-1.48589 0.0606676c0,0 2.18331,2.36522 2.69882,3.03236 0.515513,0.667143 2.69882,3.54792 2.69882,3.54792l4.88212 -0.515513c1.17524,-0.124096 1.61877,0.0958372 2.153,0.363913l-2.153 -2.60789 -4.70016 -2.27429 -4.09371 -1.60718z"/>
   <path id="_401360096" class="fil89 str1" d="M9.26057 23.8738l-0.83895 0.0342441c0.38065,0.522593 1.0937,1.47938 1.50208,1.88776 0.576134,0.57615 1.6678,2.21368 2.18328,2.75949 0.515482,0.545793 1.75881,1.42523 1.75881,1.42523 0,0 0.940016,-0.12132 1.30391,-0.15163 0.363882,-0.0303261 2.36528,-0.212267 3.33565,-0.15163 0.54405,0.0339819 1.00229,0.125176 1.29992,0.198755l-1.75083 -2.12076 -4.70016 -2.27429 -4.09371 -1.60718z"/>
   <path id="_401359496" class="fil104" d="M6.53142 24.9654l0.60646 -0.636802c0.746306,0.867996 1.47706,1.77997 2.23893,2.6343 1.12476,1.26131 2.25837,2.46612 3.34067,3.85501l-0.515497 0.758091 -5.67056 -6.6106z"/>
   <path id="_401358968" class="fil105 str1" d="M20.215 30.34c0,0 0.864294,-0.247529 1.56173,-0.32464 0.697423,-0.0770955 4.83666,-0.793692 5.35217,-0.992524 -0.121304,-0.653708 -5.35217,-6.28518 -5.35217,-6.28518l-0.363898 -0.508247c0,0 -2.51688,0.689633 -3.21433,0.736418 -0.697454,0.0467849 -3.82079,0.243149 -3.97243,0.567079 -0.15163,0.323946 5.24603,5.64181 5.24603,5.64181 0,0 0.651918,1.18983 0.742897,1.16529z"/>
   <path id="_401359712" class="fil89 str1" d="M20.215 30.34l0.0209784 -0.00592331c0.283655,-0.123263 1.02237,-0.41713 1.86271,-0.535488 1.0765,-0.15163 3.92694,-0.7733 4.07857,-0.788448 0.0770647,-0.00771264 0.494827,-0.0741647 0.887108,-0.137655 -0.200575,-0.360736 -0.836544,-1.14286 -1.60179,-2.0322l-0.665045 -0.544127 -2.91109 1.30393c0,0 -1.77395,1.16745 -1.86493,1.21295 -0.0434684,0.0217188 -0.176835,0.403201 -0.304341,0.795821 0.195114,0.337212 0.44414,0.745612 0.497835,0.731143z"/>
   <path id="_401359232" class="fil85 str1" d="M20.1998 30.3627c0,0 0.950259,-0.469885 1.57686,-0.586901 0.62659,-0.117016 4.87183,-1.01361 5.39761,-1.17113 0.212267,-0.235883 -5.39761,-6.10657 -5.39761,-6.10657l-0.363898 -0.496709c0,0 -2.48657,0.860391 -3.18402,0.929296 -0.697454,0.0689047 -3.88143,0.910122 -4.03305,1.23887 -0.15163,0.328744 5.29149,4.8904 5.29149,4.8904 0,0 0.621654,1.3302 0.712617,1.30276z"/>
   <path id="_401361344" class="fil89 str1" d="M20.1998 30.3627c0,0 0.0761546,-0.0376685 0.199572,-0.0943101 0.283424,-0.178656 0.641522,-0.383226 0.895669,-0.454691 0.485202,-0.136437 2.45623,-0.530676 2.86562,-0.651965 0.352282,-0.104367 2.35492,-0.646597 2.90669,-0.795821 -0.237981,-0.350956 -0.830142,-1.04122 -1.53657,-1.82933l-2.35566 0.199248c0,0 -2.92627,1.13718 -2.97174,1.28878 -0.0349845,0.116646 -0.240526,1.2834 -0.333448,1.81528 0.147234,0.284396 0.289872,0.534871 0.32987,0.522809z"/>
   <path id="_401358728" class="fil106 str1" d="M20.2302 30.3403c0,0 0.849115,-0.591328 1.54654,-0.712617 0.697438,-0.121289 5.12476,-1.2736 5.33701,-1.5162 -0.439698,-0.470039 -5.33701,-5.76151 -5.33701,-5.76151l-0.363882 -0.485202c0,0 -2.51688,0.849084 -3.21433,0.940063 -0.697454,0.0909629 -4.06337,0.424534 -4.215,0.758075 -0.15163,0.333541 4.98824,5.32181 4.98824,5.32181 0,0 1.16748,1.48589 1.25844,1.45558z"/>
   <path id="_401358248" class="fil107 str1" d="M10.9284 23.4189l-2.75946 -0.1516c0,0 2.45623,3.00205 3.09303,3.82079 0.636802,0.818743 2.72913,2.63817 2.75946,2.63817 0.0303107,0 2.79739,-0.208473 4.18468,-0.15163 1.38729,0.0568421 1.97487,0.758091 1.97487,0.758091l-0.207671 -0.485896 -1.66863 -1.70118 -2.79739 -2.27052 -1.12197 -1.72846 -3.45691 -0.727765z"/>
   <path id="_401360000" class="fil104 str1" d="M10.9284 23.4189l-1.54149 -0.117016c0.214766,0.541474 1.17465,1.32187 1.50708,1.70542 0.33243,0.383534 2.91112,3.79045 2.91112,3.79045l0.379061 0.606506c0,0 0.333541,-3.08506e-005 0.60646,-0.0454891 0.272919,-0.0454737 2.45626,-0.0757844 2.66851,-0.0454737 0.212267,0.0303107 1.71327,0.1516 1.78909,0.212252 0.0758152,0.0606522 0.561017,0.303261 0.758122,0.530676 0.0374371,0.0432062 0.072144,0.0798567 0.103828,0.110846l-0.136868 -0.320244 -1.66863 -1.70118 -2.79739 -2.27052 -1.12197 -1.72846 -3.45691 -0.727765z"/>
   <path id="_401360264" class="fil108 str1" d="M13.9911 22.6912c2.02825,2.3762 4.12114,4.69871 6.08475,7.12858 0.114517,0.141743 0.0726068,0.357188 0.108902,0.535766 0,0 -0.06039,-0.408924 -0.369096,-0.59648 -0.348642,-0.211804 -0.825669,-0.441209 -1.27598,-0.457267 -0.849054,-0.0302798 -4.306,-0.0606213 -4.306,-0.0606213l-4.33628 -6.33769 -0.636802 -1.00071 2.54719 0.57618c0.250429,0.0566108 2.0175,-0.129912 2.18331,0.212252z"/>
   <path id="_409287368" class="fil0" d="M19.6161 30.8559c0.102316,-0.137671 0.0832965,-0.419352 0.253838,-0.466059l0.163091 -0.094958c-0.666094,-0.0362186 -1.4232,-0.0420647 -2.0892,0.0126333 -1.76232,0.144813 -3.53989,0.51724 -5.28708,0.540795l-0.419136 0.703578 7.37848 -0.695989z"/>
  </g>
  <path class="fil109" d="M2.70169 23.1831l0.082988 0.00729616 0.0190348 0.0171838c-0.0801806,0.0414786 -0.128647,0.206359 -0.134663,0.371394 -0.00743498,0.204076 -0.0214103,0.408029 -0.0244953,0.612198 -0.00269942,0.179581 -0.0176928,0.363219 -0.0204076,0.5428 0.00584618,0.12405 0.0363265,0.241899 0.0857028,0.355059l-0.0775274 -0.0122322c-0.0606368,-0.111972 -0.0795327,-0.232243 -0.0857183,-0.355059 0.0136051,-0.179581 0.0357095,-0.358715 0.0408153,-0.538728 0.00578448,-0.203984 -0.00856103,-0.408137 -0.00815997,-0.612198 1.54253e-005,-0.0148854 0.0612075,-0.229991 0.12243,-0.387714z"/>
  <polygon class="fil110" points="3.11186,22.8799 6.53199,22.4065 8.58079,22.0065 11.3234,21.4515 12.5478,21.1413 12.4254,21.125 10.3602,21.5903 8.67058,21.9331 6.45036,22.3494 3.65877,22.7412 2.96494,22.8636 "/>
  <path class="fil104" d="M2.65373 24.593c0,0 0.448953,0.229975 0.612198,0.291893 0.163246,0.0619171 1.42028,0.398049 1.42028,0.398049l0.973366 0.236608 -0.987665 -0.207856 -1.41621 -0.398049 -0.612183 -0.291893 0.0102115 -0.0287527z"/>
  <path class="fil104" d="M2.63129 24.3891l0.5428 0.154623 0.424457 0.121227 0.828507 0.253113 -0.844827 -0.21836 -0.41221 -0.126672 -0.542816 -0.14489c0,0 0.0163354,-0.0444556 0.0040877,-0.0390414z"/>
  <path class="fil89" d="M0.503651 29.1721c0,0 1.2407,0.212221 1.61618,0.342827 0.375482,0.130606 2.12226,0.604038 2.35081,0.653014 0.228556,0.0489753 2.95484,0.489753 2.95484,0.489753l0.571383 0.0652952 0.0163199 0.122446 -0.604023 -0.0897905 -2.95484 -0.522408 -2.36715 -0.620358c0,0 -1.56721,-0.457097 -1.58353,-0.440777z"/>
  <path class="fil89" d="M0.568884 28.9762l1.63252 0.302012 2.39161 0.587703 -0.0081754 0.0734552 -2.39977 -0.604023c-0.470641,-0.118466 -1.63998,-0.303122 -1.61618,-0.359147z"/>
  <polygon class="fil89" points="0.707635,26.7478 1.15659,26.756 2.88704,27.0906 3.51556,27.1804 2.8544,27.1641 2.06262,27.009 1.14025,26.7968 "/>
 </g>
</svg>